<svg xmlns="http://www.w3.org/2000/svg" width="799.277" height="1033.717" viewBox="0 0 799.277 1033.717"><g transform="translate(-160.723 -495.332)"><g transform="translate(150.197 667.713)" opacity="0.2"><path d="M515.574,1600.323c175.365,0,274.156-36.983,377.716-118.122s74.823-147.077,68.113-170.721c-8.994-31.76-43.986-52.769-47.57-85.548-4.6-41.984,42.721-69.422,61.026-107.471a83.938,83.938,0,0,0-63.485-119.451c-26.806-3.935-58.426,3.9-78.065-14.791-23.4-22.274-9.275-61.482-16.231-93-7.8-35.344-44.2-59.164-80.314-61.658S665.444,841.9,634.738,861.078c-32.849,20.518-69.6,47.6-106.347,35.379-26.139-8.678-42.019-34.887-52.594-60.323s-18.726-53.051-38.084-72.619c-33.2-33.552-92.259-31.2-129.324-1.967S254.777,840.385,255.8,887.568s17.461,92.61,36.327,135.858c11.453,26.244,24.1,52.8,26.314,81.367,2.178,28.563-8.678,60.253-33.938,73.814-23.469,12.578-53.4,7.062-76.976,19.464-32.322,17.039-25.268,148.485-16.1,183.864C200.805,1417.665,340.208,1600.323,515.574,1600.323Z" transform="translate(-173.197 -738.987)" fill="#5891ff"/></g><g transform="translate(327.774 495.332)"><g transform="translate(228.341 202.641)"><path d="M1723.6,1944.866q39.419,4.005,78.838,8.045c1.089-40.227,3.619-80.384,4.708-120.611.457-16.723-.457-36.327-14.088-45.989-13.245-9.38-32.814-3.759-43.74,8.256s-15.212,28.493-18.409,44.408C1723.986,1873.2,1724.127,1909.944,1723.6,1944.866Z" transform="translate(-1584.819 -1445.565)" fill="#84bab5"/><path d="M1350.651,1242.2a6.147,6.147,0,0,1-1.967-4.286c-.176-1.616-.035-3.232-.316-4.813a5.206,5.206,0,0,0-2.53-3.935c.035-4.778-3.619-8.959-8.221-10.224-2.74-.738-6.113-.176-7.764,2.143a8.826,8.826,0,0,0-1.265,4.989,31.951,31.951,0,0,0,12.367,25.647C1344.643,1248.977,1348.192,1246.026,1350.651,1242.2Z" transform="translate(-1328.581 -1080.38)" fill="#e84eff"/><path d="M1508.3,1097.5c-14.439,5.094-25.893,16.3-35.484,28.212s-17.918,24.944-28.844,35.695-25.19,19.182-40.508,19.007c-15.564-.176-29.687-9.2-40.93-19.99-7.2,1.792-14.791,7.378-16.337,14.615,16.337,17.637,39.595,30.847,63.555,32.814a98.221,98.221,0,0,0,67.56-20.1C1503.806,1167.274,1513.221,1130.63,1508.3,1097.5Z" transform="translate(-1340.01 -1001.804)" fill="#d1fffa"/><path d="M1543.781,2489.956c-1.019,3.021-4.146,4.919-7.237,5.692-3.127.773-6.359.632-9.556,1.054a29,29,0,0,0-23.188,19.147h65.136c1.651-9.732.422-19.147-2.459-28.6C1559.415,2485.319,1550.667,2487.567,1543.781,2489.956Z" transform="translate(-1442.241 -1902.823)" fill="#533a00"/><path d="M1832.781,2489.956c-1.019,3.021-4.146,4.919-7.237,5.692-3.127.773-6.359.632-9.556,1.054a29,29,0,0,0-23.187,19.147h65.136c1.651-9.732.422-19.147-2.459-28.6C1848.415,2485.319,1839.7,2487.567,1832.781,2489.956Z" transform="translate(-1629.707 -1902.823)" fill="#533a00"/><path d="M1836.6,1595.288a2247.08,2247.08,0,0,0,21.712,309.133h28.422c13.667-48.378,17.145-103.079,6.851-152.3-11.313-54.175,15.388-111.9,9.029-166.881C1879.181,1576.035,1857.469,1581.129,1836.6,1595.288Z" transform="translate(-1658.119 -1315.18)" fill="#003798"/><path d="M1636.9,1911.561c23.152-44.619,37.592-97.494,37.452-147.733-.141-55.369,37.662-106.488,42.581-161.611-21.15-13.737-43.424-13.14-66.717-3.513-20.307,99.039-33.938,211.464-40.719,312.857Z" transform="translate(-1510.805 -1322.355)" fill="#003798"/><path d="M1770.745,1587.8c-16.688-5.727-34.044-3.689-52,3.759q-1.792,8.8-3.548,17.777c4.708,4.11,10.926,6.991,16.864,9.24a270.8,270.8,0,0,0,90.432,17.531c2.178-17.074,3.338-34.114,1.405-50.872C1805.21,1577.891,1787.679,1579.647,1770.745,1587.8Z" transform="translate(-1579.37 -1315.174)" opacity="0.2"/><path d="M1874.6,1600.725c9.416,79.681,17.215,155.252,12.472,235.354,21.853.562,46.938-2,67.1-10.364,4.462-16.618.351-34.29-3.583-51.048s-9.556-33.165-12.015-50.24c-3.548-24.979-.141-50.345,1.827-75.5s2.319-51.259-6.921-74.727C1913.246,1577.854,1893.537,1592.61,1874.6,1600.725Z" transform="translate(-1682.768 -1311.026)" fill="#d1fffa"/><path d="M1803.865,1274.436q4.269-36.257,8.5-72.549c1.862-15.985,3.759-32.111,2.6-48.2-1.124-16.056-5.446-32.287-14.931-45.286-12.437-17.074-35.344-27.228-56.458-26.912-16.231.246-31.76,8.5-42.686,20.518s-17.531,27.509-20.834,43.389-3.513,32.287-2.881,48.483a472.05,472.05,0,0,0,9.872,79.119c1.44,6.781,11.594,7.308,18.515,7.764C1737.218,1283.008,1772.7,1280.233,1803.865,1274.436Z" transform="translate(-1554.521 -991.412)" fill="#d1fffa"/><path d="M1873.386,1097.2c3.408,8.221,6.851,16.442,10.259,24.663-2.811,1.757-5.27,4.321-8.081,6.078a73.95,73.95,0,0,0,13.807,10.891c-10.048,45.462-19.6,92.891-29.652,138.353.105-25.612-1.335-54.631-1.23-80.278C1858.63,1163.425,1863.408,1129.171,1873.386,1097.2Z" transform="translate(-1672.314 -1001.61)" fill="#9bdbd5"/><path d="M1786.86,1091.8c-7.659,5.586-15.283,11.137-22.942,16.723,3.619,4.356,7.237,8.748,10.856,13.1-5.27,3.97-10.5,7.94-15.775,11.875a1012.178,1012.178,0,0,0,18.48,134.383,887.283,887.283,0,0,1,11.734-103.325c2.284-12.964,4.848-25.963,4.954-39.1C1794.273,1112.282,1794.1,1102.8,1786.86,1091.8Z" transform="translate(-1607.782 -998.107)" fill="#9bdbd5"/><g transform="translate(167.018 90.069)"><path d="M1828.785,1281.114c-3.021-66.085-6.535-132.978,12.437-196.357a8.44,8.44,0,0,0,.316-1.686,70.845,70.845,0,0,0-15.529-1.581,51.8,51.8,0,0,0-9.029.949c-.141,1.124-.316,2.249-.527,3.443a805.619,805.619,0,0,0-10.645,195.619Q1817.191,1281.658,1828.785,1281.114Z" transform="translate(-1803.971 -1081.483)" fill="#fa2"/></g><path d="M1963.905,1183.637a123.253,123.253,0,0,0-6.219-18.515,4.21,4.21,0,0,1-2.916-1.475c-1.792-2.213-3.513-4.532-5.3-6.781-.949-.984-1.9-1.932-2.916-2.916-1.475-1.476-2.881-3.021-4.216-4.6-3.338-2.74-7.1-4.883-10.821-7.483a36.083,36.083,0,0,1-6.6-5.621c-1.792-2.038-3.443-4.216-5.094-6.359-1.23-1.581-2.424-3.232-3.548-4.883-3.232,9.275-6.254,19.534-4.883,28.387,1.335,8.572,5.727,16.337,9.2,24.277,10.329,23.5,13.069,49.924,10.188,75.395-2.916,25.506-12.051,51.715-23.152,74.868.281.281.562.562.878.843a7.074,7.074,0,0,1-2.495,2.389c-1.37.843-2.916,1.44-4.216,2.389a5.222,5.222,0,0,0-2.424,3.97c-4.321,2.073-6.5,7.167-5.621,11.875.527,2.811,2.494,5.586,5.3,6.043a8.868,8.868,0,0,0,5.059-1.054,31.931,31.931,0,0,0,16.512-18.164c.246.105.492.211.7.316,17-21.5,31.022-45.6,39.1-71.776C1968.543,1238.549,1970.545,1210.2,1963.905,1183.637Z" transform="translate(-1695.063 -1019.643)" opacity="0.2"/><path d="M1945.912,1702.7a6.056,6.056,0,0,1-2.705,3.865c-1.3.949-2.776,1.651-4.005,2.705a5.159,5.159,0,0,0-2.108,4.146c-4.146,2.389-5.9,7.659-4.638,12.3.738,2.74,2.916,5.375,5.762,5.586a8.946,8.946,0,0,0,4.954-1.44,31.959,31.959,0,0,0,15.845-23.644C1954.8,1704.457,1950.479,1702.911,1945.912,1702.7Z" transform="translate(-1720.036 -1394.381)" fill="#e84eff"/><path d="M1942.293,1102.4c23.679,13.772,41.176,37.135,49.888,63.1s8.994,54.385,2.986,81.122-18.058,51.856-33.306,74.657c-5.3-1.9-10.048-3.794-14.334-7.448,9.24-23.925,16.266-50.8,17.145-76.449s-3.97-51.75-16.126-74.376c-4.111-7.659-9.1-15.037-11.1-23.469C1934.7,1128.117,1939.272,1113.748,1942.293,1102.4Z" transform="translate(-1722.988 -1004.983)" fill="#d1fffa"/><path d="M1652.327,1512.568a2454.961,2454.961,0,0,1-2.846,247.546c-26.6-2.214-53.507-4.286-79.681-9.661,11.945-75.676,40.754-149.525,40.543-226.115-.07-23.609-3.021-47.921,4.462-70.336-.105-.457-.035,2.178-.141,1.722a161.188,161.188,0,0,1,15.142,30.987c1.932,5.3,3.583,10.786,6.71,15.493C1639.609,1506.911,1646.67,1512.181,1652.327,1512.568Z" transform="translate(-1485.053 -1233.022)" fill="#d1fffa"/><g transform="translate(149.813 81.359)"><path d="M1808.718,1134.479l-3.654-1.054c5.938-20.518,10.856-40.543,6.219-59.55-1.159-4.778-2.705-7.835-4.954-9.872-2.811-2.565-6.6-3.267-9.31-3.443-10.224-.6-21.115,6.043-27.72,16.829-5.9,9.591-8.256,20.9-10.54,33.587l-3.759-.668c2.354-13.069,4.813-24.734,11.032-34.922,7.343-11.98,19.6-19.288,31.2-18.656,3.3.176,8.01,1.089,11.629,4.392,3.654,3.3,5.164,8.045,6.078,11.8C1819.855,1092.917,1814.8,1113.469,1808.718,1134.479Z" transform="translate(-1755 -1056.692)" fill="#bfbfbf"/></g><g transform="translate(195.096 152.021)"><circle cx="5.762" cy="5.762" r="5.762" transform="translate(0 11.375) rotate(-80.782)" fill="#dbdbdb"/></g><g transform="translate(127.336 132.374)"><path d="M1718.384,1239.947a2.054,2.054,0,0,1-.457-.07,1.882,1.882,0,0,1-1.37-2.319,122.556,122.556,0,0,0,3.724-18.515,21.041,21.041,0,0,0-.351-7.519,7.881,7.881,0,0,0-3.935-5.164,8.435,8.435,0,0,0-5.165-.457c-4.637.913-8.994,4.673-11.664,10.013-2.53,5.059-3.443,10.856-4.356,16.442a1.9,1.9,0,1,1-3.759-.6c.949-5.867,1.932-11.98,4.708-17.531,3.2-6.394,8.537-10.891,14.334-12.051a12.3,12.3,0,0,1,7.589.738,11.685,11.685,0,0,1,5.9,7.553,24.389,24.389,0,0,1,.492,8.924c-.6,6.535-2.248,12.929-3.794,19.112A2.014,2.014,0,0,1,1718.384,1239.947Z" transform="translate(-1691.024 -1201.898)" fill="#dbdbdb"/></g><path d="M1715.048,875.878c-12.788,2.986-26.947,2.986-38.224-3.724s-18.3-21.5-13.175-33.587c4.111-9.7,15.81-15.423,26-12.823,12.894,3.338,21.923,17.777,35.2,17.426,4.075-.105,7.975-1.651,11.91-2.67,3.97-1.019,8.4-1.405,11.91.6s5.375,7.272,2.705,10.364a6.89,6.89,0,0,1,6.64,2.249,15.657,15.657,0,0,1,3.2,6.71,37.839,37.839,0,0,1-18.761,42.651,33.908,33.908,0,0,0-5.27-20.518C1733.177,875.737,1722.813,874.086,1715.048,875.878Z" transform="translate(-1544.823 -825.117)" fill="#2d0089"/><path d="M1834.5,1030.262q.211,11.172.386,22.415c7.694,3.338,16.969,2.389,24.909-.211a175.505,175.505,0,0,1-.457-26.841C1850.38,1022.919,1842.51,1025.344,1834.5,1030.262Z" transform="translate(-1656.757 -954.452)" fill="#e84eff"/><path d="M1859.439,1025.625c-8.994-2.705-16.864-.281-24.839,4.637q.211,11.172.386,22.415a1.249,1.249,0,0,1,.316.141,90.5,90.5,0,0,0,23.89-12.437C1859.088,1035.462,1859.193,1030.578,1859.439,1025.625Z" transform="translate(-1656.822 -954.451)" opacity="0.2"/><path d="M1794.106,914.612a94.918,94.918,0,0,0,5.9,44.443c8.572,4.427,21.466,2.143,28.879-4.075,7.413-6.183,11.1-16.231,10.469-25.893-.386-5.973-2.459-12.051-6.71-16.266-4.5-4.427-11.1-6.394-17.391-6.008C1808.932,907.234,1799.341,911.134,1794.106,914.612Z" transform="translate(-1630.205 -878.08)" fill="#e84eff"/><path d="M1756,911.661a51.689,51.689,0,0,0,38.154-.316c.562,3.759,3.408,7.624,6.429,9.907.07,1.967-.035,3.689.035,5.656a4.558,4.558,0,0,0,2.565,1.335c-.492-3.548-.632-7.308,1.405-10.259.843-1.23,2.459-2.249,3.83-1.651a3.833,3.833,0,0,1,1.792,2.986,14.591,14.591,0,0,1-6.956,14.756,11.305,11.305,0,0,0,5.481,9.064c4.778-6.324,9.345-13.6,10.5-21.431s-.738-16.407-6.289-22.028c-6.148-6.254-15.634-8.01-24.417-7.659a46.149,46.149,0,0,0-19.85,4.919A27.644,27.644,0,0,0,1756,911.661Z" transform="translate(-1605.836 -868.488)" fill="#2d0089"/></g><g transform="translate(0 207.583)"><path d="M882.467,890.413c14.967-.984,31.163-8.221,42.194-18.374a51.724,51.724,0,0,0-73.709-26.174c-4.075-1.721-10.364.668-13.421,3.865s-4.5,7.589-5.34,11.91a53.2,53.2,0,0,0,6.324,36.643c3.865,6.57,9.626,12.542,17.075,14.3C864.971,906.785,877.408,900.18,882.467,890.413Z" transform="translate(-777.646 -839.184)" fill="#ff0498"/><path d="M1262.907,1588.5a6.228,6.228,0,0,0,4.181,2.143c1.581.211,3.232.141,4.813.492a5.3,5.3,0,0,1,3.829,2.67c4.778.176,8.818,3.97,9.907,8.643.632,2.775-.035,6.113-2.459,7.659a8.915,8.915,0,0,1-5.059,1.054,31.877,31.877,0,0,1-25.12-13.385C1255.881,1594.227,1258.973,1590.819,1262.907,1588.5Z" transform="translate(-1051.212 -1325.244)" fill="#e84eff"/><path d="M1024.792,1254.4c-10.786-31.69-7.378-70.652,6.921-100.9,5.235,58.461,35.66,114.252,81.965,150.3-4.321,4.286-8.573,9.591-12.894,13.877-30.355-20.307-55.475-47.394-75.36-77.995Z" transform="translate(-899.066 -1043.072)" fill="#41008c"/><path d="M995.085,2489.956c1.019,3.021,4.146,4.919,7.237,5.692,3.127.773,6.359.632,9.556,1.054a29,29,0,0,1,23.188,19.147H969.93c-1.651-9.732-.422-19.147,2.459-28.6C979.451,2485.319,988.2,2487.567,995.085,2489.956Z" transform="translate(-867.112 -1907.765)" fill="#533a00"/><path d="M839.185,2489.956c1.019,3.021,4.146,4.919,7.237,5.692,3.127.773,6.359.632,9.556,1.054a29,29,0,0,1,23.188,19.147H814.03c-1.651-9.732-.422-19.147,2.459-28.6C823.551,2485.319,832.3,2487.567,839.185,2489.956Z" transform="translate(-765.984 -1907.765)" fill="#533a00"/><path d="M833.281,1595.288a2247.09,2247.09,0,0,1-21.712,309.133H783.146c-13.667-48.378-17.145-103.079-6.851-152.3,11.313-54.175-15.388-111.9-9.029-166.881C790.735,1576.035,812.412,1581.129,833.281,1595.288Z" transform="translate(-735.486 -1320.122)" fill="#6335ff"/><path d="M967.154,2028.923c-14.475,48.132-15.7,110.739-6.254,160.1H987.18c11.875-52.488,22.8-108.455,31.725-164.457-16.829-1.089-33.306-2.073-50.135-1.651C968.278,2024.918,967.751,2026.921,967.154,2028.923Z" transform="translate(-857.801 -1606.973)" fill="#6335ff"/><path d="M878.4,1602.227c4.708,53.086,39.911,102.412,42.405,155.427,15.985-5.2,32.041-8.994,48.518-12.718-6.57-49.994-14.65-99.566-24.206-146.187C921.789,1589.087,899.55,1588.49,878.4,1602.227Z" transform="translate(-808.22 -1327.307)" fill="#6335ff"/><path d="M820.343,1587.8c16.688-5.727,34.044-3.689,52,3.759q1.792,8.8,3.548,17.777c-4.708,4.11-10.926,6.991-16.864,9.24a270.8,270.8,0,0,1-90.432,17.531c-2.178-17.074-3.338-34.114-1.405-50.872C785.878,1577.891,803.444,1579.647,820.343,1587.8Z" transform="translate(-735.442 -1320.116)" opacity="0.2"/><path d="M734.147,1274.436q-4.269-36.257-8.5-72.549c-1.862-15.985-3.759-32.111-2.6-48.2,1.124-16.056,5.446-32.287,14.931-45.286,12.437-17.074,35.344-27.228,56.458-26.912,16.231.246,31.76,8.5,42.686,20.518s17.531,27.509,20.834,43.389,3.513,32.287,2.881,48.483A472.062,472.062,0,0,1,850.964,1273c-1.44,6.781-11.594,7.308-18.515,7.764C800.829,1283.008,765.345,1280.233,734.147,1274.436Z" transform="translate(-707.215 -996.354)" fill="#5200b0"/><path d="M912.4,1030.262q-.211,11.172-.386,22.415c-7.694,3.338-16.969,2.389-24.909-.211a175.528,175.528,0,0,0,.457-26.841C896.516,1022.919,904.385,1025.344,912.4,1030.262Z" transform="translate(-813.863 -959.394)" fill="#e84eff"/><path d="M888.4,1025.625c8.994-2.705,16.864-.281,24.839,4.637q-.211,11.172-.386,22.415a1.252,1.252,0,0,0-.316.141,90.5,90.5,0,0,1-23.89-12.437C888.751,1035.462,888.611,1030.578,888.4,1025.625Z" transform="translate(-814.707 -959.393)" opacity="0.2"/><path d="M914.922,914.612a94.92,94.92,0,0,1-5.9,44.443c-8.572,4.427-21.466,2.143-28.879-4.075-7.413-6.183-11.1-16.231-10.47-25.893.386-5.973,2.459-12.051,6.71-16.266,4.5-4.427,11.1-6.394,17.391-6.008C900.061,907.234,909.652,911.134,914.922,914.612Z" transform="translate(-802.513 -883.022)" fill="#e84eff"/><path d="M920.337,911.661a51.689,51.689,0,0,1-38.154-.316c-.562,3.759-3.408,7.624-6.429,9.907-.07,1.967.035,3.689-.035,5.656a4.559,4.559,0,0,1-2.565,1.335c.492-3.548.632-7.308-1.405-10.259-.843-1.23-2.459-2.249-3.83-1.651a3.833,3.833,0,0,0-1.792,2.986,14.591,14.591,0,0,0,6.956,14.756,11.306,11.306,0,0,1-5.481,9.064c-4.778-6.324-9.345-13.6-10.5-21.431s.738-16.407,6.289-22.028c6.148-6.254,15.634-8.01,24.417-7.659a46.148,46.148,0,0,1,19.85,4.919A27.791,27.791,0,0,1,920.337,911.661Z" transform="translate(-794.191 -873.43)" fill="#ff0498"/><path d="M692.473,1183.637a123.274,123.274,0,0,1,6.219-18.515,4.21,4.21,0,0,0,2.916-1.475c1.792-2.213,3.513-4.532,5.305-6.781.949-.984,1.9-1.932,2.916-2.916,1.476-1.476,2.881-3.021,4.216-4.6,3.338-2.74,7.1-4.883,10.821-7.483a36.089,36.089,0,0,0,6.6-5.621c1.792-2.038,3.443-4.216,5.094-6.359,1.23-1.581,2.424-3.232,3.548-4.883,3.232,9.275,6.254,19.534,4.883,28.387-1.335,8.572-5.727,16.337-9.2,24.277-10.329,23.5-13.069,49.924-10.189,75.395,2.916,25.506,12.051,51.715,23.153,74.868-.281.281-.562.562-.878.843a7.074,7.074,0,0,0,2.494,2.389c1.37.843,2.916,1.44,4.216,2.389a5.222,5.222,0,0,1,2.424,3.97c4.321,2.073,6.5,7.167,5.621,11.875-.527,2.811-2.494,5.586-5.305,6.043a8.867,8.867,0,0,1-5.059-1.054,31.932,31.932,0,0,1-16.512-18.164c-.246.105-.492.211-.7.316-17-21.5-31.022-45.6-39.1-71.776C687.836,1238.549,685.868,1210.2,692.473,1183.637Z" transform="translate(-685.04 -1024.585)" opacity="0.3"/><path d="M798,1702.7a6.056,6.056,0,0,0,2.705,3.865c1.3.949,2.776,1.651,4.005,2.705a5.159,5.159,0,0,1,2.108,4.146c4.146,2.389,5.9,7.659,4.638,12.3-.738,2.74-2.916,5.375-5.762,5.586a8.945,8.945,0,0,1-4.954-1.44,31.959,31.959,0,0,1-15.845-23.644C789.116,1704.457,793.437,1702.911,798,1702.7Z" transform="translate(-747.569 -1399.323)" fill="#e84eff"/><path d="M735.613,1102.4c-23.68,13.772-41.176,37.135-49.889,63.1s-8.994,54.385-2.986,81.122,18.058,51.856,33.306,74.657c5.305-1.9,10.048-3.794,14.334-7.448-9.24-23.925-16.266-50.8-17.145-76.449s3.97-51.75,16.126-74.376c4.11-7.659,9.1-15.037,11.1-23.469C743.2,1128.117,738.635,1113.748,735.613,1102.4Z" transform="translate(-678.643 -1009.925)" fill="#5200b0"/></g><path d="M976.922,490.86c-19.042,5.551-38.892-5.762-44.443-24.8-8.326-28.633,1.616-63.169,26.912-79.786,16.618-10.926,36.96-14.159,56.634-17.18l121.1-18.445c11.488-1.757,23.258-3.513,34.711-1.546s22.836,8.326,27.755,18.866c5.727,12.191,1.757,26.49-2.284,39.314q-8.8,27.983-17.566,56c-4.884,15.564-10.926,32.568-25.19,40.508-12.613,6.991-28.141,4.778-42.37,2.389q-53.7-9.064-107.4-18.093c-8.959,9.872-19.323,20.1-28.282,30,.6-8.467.738-19.042,1.3-27.474C977.555,490.684,977.239,490.79,976.922,490.86Z" transform="translate(-841.43 -313.134)" fill="#ffeb98" opacity="0.7"/><path d="M1406.984,390.96c19.042,5.551,38.892-5.762,44.443-24.8,8.327-28.633-1.616-63.169-26.912-79.787-16.618-10.926-36.96-14.159-56.634-17.18l-121.1-18.445c-11.488-1.757-23.258-3.513-34.711-1.546s-22.836,8.326-27.755,18.866c-5.727,12.191-1.757,26.49,2.284,39.314q8.8,27.983,17.566,55.967c4.883,15.564,10.926,32.568,25.19,40.508,12.613,6.991,28.141,4.778,42.37,2.389q53.7-9.064,107.4-18.093c8.959,9.872,19.323,20.1,28.282,30-.6-8.467-.738-19.042-1.3-27.474C1406.352,390.784,1406.668,390.854,1406.984,390.96Z" transform="translate(-1004.799 -248.332)" fill="#1d27ff" opacity="0.7"/></g></g></svg>