<svg xmlns="http://www.w3.org/2000/svg" width="112" height="122.927" viewBox="0 0 112 122.927"><g transform="translate(-324 -1528.073)"><ellipse cx="56" cy="12" rx="56" ry="12" transform="translate(324 1627)" fill="#dbe7fd"/><path d="M81.2,20.362a11.619,11.619,0,0,0-5.63,21.683V62.494c0,10.406-9.117,18.887-20.34,18.887-10.9,0-19.831-8.009-20.321-18.015A29.134,29.134,0,0,0,58.113,34.891V6.67a4.356,4.356,0,0,0-3.5-4.268L43.185.114a4.347,4.347,0,0,0-5.121,3.414l-.581,2.851A4.347,4.347,0,0,0,40.9,11.5l5.575,1.108V34.655a17.435,17.435,0,1,1-34.868.218V12.626l5.575-1.108A4.347,4.347,0,0,0,20.594,6.4l-.563-2.851A4.347,4.347,0,0,0,14.91.132L3.5,2.384A4.375,4.375,0,0,0,0,6.67V34.891A29.1,29.1,0,0,0,23.263,63.366C23.736,79.783,37.883,93,55.208,93,72.823,93,87.17,79.311,87.17,62.494V42.046A11.62,11.62,0,0,0,81.2,20.362Zm.163,14.528a2.906,2.906,0,1,1,2.906-2.906A2.914,2.914,0,0,1,81.359,34.891Z" transform="translate(333.948 1528.046)" fill="#5600ff"/></g></svg>