<svg xmlns="http://www.w3.org/2000/svg" xmlns:xlink="http://www.w3.org/1999/xlink" width="257" height="1112" viewBox="0 0 257 1112"><defs><clipPath id="a"><rect width="257" height="1112" transform="translate(0 787)" fill="#fff" stroke="#707070" stroke-width="1"/></clipPath></defs><g transform="translate(0 -787)" clip-path="url(#a)"><path d="M1131.417,1.994h-97.7L980.08,102.718S957.871,202.661,795,206.362s-347.947-25.911-414.575-25.911S250.872,195.257,210.155,298.9,33.892,499.818,7.981,633.074s-24.1,343.117,94.35,406.044c88.245,46.88,105.756-5.616,278.1,9.688,58.592,5.2,131.2,52.478,236.9,68.141,414.482,61.422,519.068-139.537,519.068-139.537Z" transform="matrix(-0.485, -0.875, 0.875, -0.485, -609.354, 2015.935)" fill="#ffeb98" opacity="0.7"/><path d="M1131.417,1.994h-97.7L980.08,102.718S957.871,202.661,795,206.362s-347.947-25.911-414.575-25.911S250.872,195.257,210.155,298.9,33.892,499.818,7.981,633.074s-24.1,343.117,94.35,406.044c88.245,46.88,105.756-5.616,278.1,9.688,58.592,5.2,131.2,52.478,236.9,68.141,414.482,61.422,519.068-139.537,519.068-139.537Z" transform="translate(-774.182 2183.797) rotate(-111)" fill="#1d27ff" opacity="0.7"/></g></svg>