<svg xmlns="http://www.w3.org/2000/svg" width="523.698" height="579.069" viewBox="0 0 523.698 579.069"><g transform="translate(-362.169 -453.266)"><g transform="translate(362.169 453.266)"><path d="M1548.477,582.744c16.678,15.517,38.856,23.313,58.965,34.011s39.89,26.669,44.23,49.024c4.567,23.465-8.957,46.072-19.731,67.417s-18.721,48.519-4.718,67.871c9.285,12.817,26.922,18.318,42.287,14.508,15.34-3.81,27.956-16.047,33.759-30.731,6.156-15.618,5.147-32.977,7.166-49.629,6.484-53.237,44.457-100.545,42.514-154.136-.782-21.32-9.739-44.179-28.839-53.717-11.3-5.627-24.6-5.854-36.383-10.446-25.761-10.042-39.537-38.477-63.1-52.935-28.385-17.435-74.557-7.872-93.38,20.412C1512.094,513.208,1524.836,560.743,1548.477,582.744Z" transform="translate(-1229.323 -454.739)" fill="#2900d2" opacity="0.1"/><path d="M407.542,1010.77c15.694,13.65,34.819,20.412,42.211,40.546,0,0,66.762,101.337,160.609,101.337S825.14,1051.316,825.14,1051.316c4.264-3.406,8.427-6.989,12.414-10.773,30.706-29.192,49.175-79.351,24.373-113.691-12.288-17.031-32.321-26.24-50.437-36.837s-36.408-25.206-40.269-45.845c-4.794-25.509,13.877-48.746,29.9-69.158s31.16-47.838,19.352-70.949c-10.9-21.32-40.143-26.694-63.1-19.832-22.935,6.838-42.01,22.531-62.775,34.465s-46.375,20.21-68.376,10.8c-42.59-18.217-41.2-85.886-81.5-108.8-29.192-16.6-69.032.454-85.886,29.495-16.854,29.066-15.189,65.525-6.308,97.921,4.895,17.889,11.884,35.475,13.095,53.969,1.211,18.519-4.693,38.931-20.235,49.074-17.056,11.127-40.445,6.989-58.258,16.854-23.54,13.019-28.587,45.39-22.733,71.656C370.554,967.246,386.273,992.3,407.542,1010.77Z" transform="translate(-362.169 -573.584)" fill="#2900d2" opacity="0.1"/><path d="M425.78,708.114c4.87-17.939,15.769-35.626,33.128-42.287,15.9-6.081,34.037-1.918,50.411-6.51,17.081-4.819,30.1-18.52,40.925-32.548,10.849-14.054,20.74-29.344,35.122-39.714,14.382-10.4,35.021-14.684,49.755-4.794,17.107,11.505,18.8,37.241,9.84,55.811s-25.635,31.968-40.849,45.87c-15.239,13.9-30.176,30.2-33.557,50.538-3.381,20.235,5.324,40.975,2.5,61.286a55.506,55.506,0,0,1-31.463,42.085C469.985,870.3,409.632,767.583,425.78,708.114Z" transform="translate(-407.758 -545.542)" fill="#2900d2" opacity="0.1"/><g transform="translate(76.12)"><path d="M1222.7,1175.364a32.784,32.784,0,0,1,8.755-5.954,8.921,8.921,0,0,1,3.659-1.009,3.792,3.792,0,0,1,3.28,1.615,18.474,18.474,0,0,1,9.664-.605,4.3,4.3,0,0,1,2.8,1.464c1.085,1.489.252,3.608-.782,5.122a23.674,23.674,0,0,1-24.6,9.512A21.517,21.517,0,0,1,1222.7,1175.364Z" transform="translate(-1081.7 -987.965)" fill="#e17f00"/><path d="M1031.847,2216.546a14.846,14.846,0,0,0,5,12.792c2.75,2.346,6.257,3.583,9.689,4.794s6.938,2.472,9.663,4.844c2.725,2.4,4.516,6.207,3.482,9.689h-47.434c-1.665-10.37-3.1-21.194-2.574-31.69C1016.759,2214.654,1024.4,2215.663,1031.847,2216.546Z" transform="translate(-922.336 -1770.908)" fill="#703f00"/><path d="M800.047,2216.546a14.846,14.846,0,0,0,5,12.792c2.75,2.346,6.257,3.583,9.689,4.794s6.939,2.472,9.663,4.844c2.725,2.4,4.516,6.207,3.482,9.689H780.443c-1.665-10.37-3.1-21.194-2.574-31.69C784.959,2214.654,792.6,2215.663,800.047,2216.546Z" transform="translate(-749.021 -1770.908)" fill="#703f00"/><path d="M783.138,505.578c7.014,2.574,15.113.959,21.421-3,6.333-3.961,11.076-10.067,14.735-16.577,3.381-6.03,6.005-12.893,4.945-19.731S817.376,453,810.488,453.274c-5.3.227-9.613,4.037-13.877,7.191s-9.815,5.9-14.659,3.759c-3.053-1.362-5.122-4.39-8.2-5.677-3.81-1.59-8.351,0-11.379,2.8s-4.87,6.636-6.636,10.37c-5.753-1.993-11.985.833-16.022,5.374s-5.6,10.925-5.2,17.006,2.573,11.884,5.3,17.334c3.457,6.913,8.023,13.6,14.659,17.536,6.636,3.961,15.694,4.567,21.825-.151-.3-4.87-1.59-11.48-1.438-16.375S778.394,506.688,783.138,505.578Z" transform="translate(-716.645 -453.266)" fill="#c400b8"/><path d="M864.525,806.8c9.462,21.724,10.37,47.131,23.717,66.711a62.229,62.229,0,0,0,54.524,26.518c2.069,4.794,3.911,10.521,3.406,15.694-35.6,5.652-73.977-7.241-95.9-35.853C834.475,859.28,850.775,828.852,864.525,806.8Z" transform="translate(-798.386 -717.6)" fill="#dbf4ff"/><path d="M718.094,798.1c-14.861,4.188-27,15.467-34.844,28.738-7.872,13.272-11.859,28.486-14.609,43.65a303.183,303.183,0,0,0,2.75,120.755c5.374.656,11.833.454,16.6-2.094-15.517-53.061.1-114.019,37.014-155.17C724.806,825.8,721.8,805.392,718.094,798.1Z" transform="translate(-663.864 -711.095)" fill="#dbf4ff"/><path d="M772.773,1328.9q-2.649,116.113-5.273,232.251h29.52c8.679-75.39,17.763-154.439,23.263-230.131C804.085,1331.171,788.971,1329.531,772.773,1328.9Z" transform="translate(-741.352 -1107.969)" fill="#e17f00"/><path d="M953.91,1328.9q2.649,116.113,5.273,232.251h-29.52c-8.679-75.39-17.763-154.439-23.263-230.131C922.573,1331.171,937.712,1329.531,953.91,1328.9Z" transform="translate(-845.206 -1107.969)" fill="#e17f00"/><path d="M789.419,792.107c-17.056,17.006-22.38,42.615-22.531,66.685s4.037,48.141,2.422,72.161c13.675,4.844,27.552,10.6,42.035,11.455s29.873-2.876,40.092-13.145c-4.415-14.483-1.337-30.807-.858-45.92.5-15.113,1.539-30.353-.732-45.315s-8.225-29.924-19.554-39.941C819.015,788.045,800.143,781.409,789.419,792.107Z" transform="translate(-740.891 -702.529)" fill="#dbf4ff"/><path d="M852.855,806.663a159.461,159.461,0,0,0-8.755,22.43c3.885,1.615,7.948,4.163,11.833,5.8-2.5,5.45-5.6,11.127-8.074,16.577-.706-.757-1.009-.1-1.69.681q18.545,47.687,37.09,95.348c7.847-32.422,12.943-64.516,9.714-97.719-2.952-2.473-5.7-5.248-8.654-7.721,2.775-2.574,4.87-6.131,7.645-8.7a369.632,369.632,0,0,0-26.77-28.057C861.358,805.8,856.64,806.133,852.855,806.663Z" transform="translate(-798.625 -716.478)" opacity="0.2"/><path d="M902.436,958.847a56.283,56.283,0,0,0,12.136-2.649c-5.551-39.915-9.638-81.067-15.265-120.932-1.362-9.638-3.255-20.235-10.9-26.265-4.289,1.489-10.219,3.936-14.508,5.45A837.493,837.493,0,0,1,902.436,958.847Z" transform="translate(-820.906 -719.245)" fill="#861dff"/><path d="M866.1,756.4c.732,6.232,1.438,12.439,2.17,18.671a17.125,17.125,0,0,0,17.409-1.085c-.706-5.526-2.725-10.8-3.431-16.324C877.176,757.561,871.2,756.5,866.1,756.4Z" transform="translate(-815.074 -679.916)" fill="#e17f00"/><path d="M882.273,757.661c-5.1-.1-11.076-1.161-16.173-1.261.353,2.952.681,5.9,1.034,8.856a66.025,66.025,0,0,0,18.393,7.645C884.721,767.754,882.9,762.809,882.273,757.661Z" transform="translate(-815.074 -679.916)" opacity="0.2"/><path d="M837.618,566.941a91.247,91.247,0,0,1-.252,42.01c-11.354,3.33-25.635-.3-33.608-9.033a32.546,32.546,0,0,1-6.131-33.154c1.867-4.769,5.046-9.184,9.613-11.531,5.1-2.624,11.455-2.271,16.6.252C828.963,558.01,836.331,561.34,837.618,566.941Z" transform="translate(-762.294 -528.153)" fill="#e17f00"/><path d="M759.222,1305.166c13.5,74.557,13.978,136.348,5.223,211.612-25.988,6.888-53.616,4.138-78.645-5.727,11.631-70.95,20.311-142.908,23.238-214.741C723.016,1289.371,743.856,1302.289,759.222,1305.166Z" transform="translate(-680.265 -1082.09)" fill="#dbf4ff"/><path d="M1025.661,1168.237a584.727,584.727,0,0,1,10.118,204.774,47.2,47.2,0,0,0,20.563-7.216c-6.207-33.885,1.362-69.814,1.388-104.28.05-52-9.184-103.523-18.368-154.716C1036.283,1127.136,1021.069,1148.179,1025.661,1168.237Z" transform="translate(-933.735 -941.907)" fill="#dbf4ff"/><path d="M819.436,1459.93l26.543-.53c-.252,12.439,1.186,27.376.934,39.814-.1,4.516-.4,9.537-3.709,12.615-2.548,2.372-6.283,2.927-9.764,3.078-3.356.126-6.913-.076-9.764-1.842-4.062-2.548-5.7-7.569-6.762-12.262C813.935,1487.406,817.493,1473.529,819.436,1459.93Z" transform="translate(-777.442 -1205.543)" opacity="0.1"/><path d="M833.545,549.352a42.581,42.581,0,0,1-30.454,1.59,14.967,14.967,0,0,1-4.264,6.762c.858,2.977,1.312,6.434,2.17,9.411a4.419,4.419,0,0,0-2.826,1.413,29.982,29.982,0,0,0-2.75-7.67c-.429-.883-1.06-1.842-2.044-1.918a2,2,0,0,0-1.791,1.11,5.245,5.245,0,0,0-.479,2.17A19.746,19.746,0,0,0,799.458,579c1.716,1.186,1.034,3.583,1.968,5.475a18.557,18.557,0,0,1-15.038-6.333c-3.583-4.289-5.45-9.79-6.257-15.315-1.539-10.4.706-21.673,7.67-29.545s19-11.48,28.536-7.09C825.345,530.3,830.063,540.118,833.545,549.352Z" transform="translate(-750.451 -506.375)" fill="#c400b8"/><path d="M722.572,1564.614a29.588,29.588,0,0,0-4.34-7.014A28.03,28.03,0,0,1,706,1559.417a35.273,35.273,0,0,0-.1,4.617,17.95,17.95,0,0,0,2.649,9.032,11.123,11.123,0,0,0,7.7,5.1,8.051,8.051,0,0,0,8.023-3.936C725.726,1571.4,725.373,1566.1,722.572,1564.614Z" transform="translate(-695.263 -1278.966)" fill="#e17f00"/></g><g transform="translate(242.272 30.431)"><path d="M1577.127,2273.1a8.407,8.407,0,0,1-2.826,7.241,16.336,16.336,0,0,1-5.475,2.7,15.869,15.869,0,0,0-5.45,2.75,5.541,5.541,0,0,0-1.968,5.475h26.846a85.547,85.547,0,0,0,1.463-17.939C1585.655,2272.015,1581.315,2272.595,1577.127,2273.1Z" transform="translate(-1500.976 -1843.94)" fill="#703f00"/><path d="M1782.827,2273.1a8.407,8.407,0,0,1-2.826,7.241,16.336,16.336,0,0,1-5.475,2.7,15.872,15.872,0,0,0-5.45,2.75,5.541,5.541,0,0,0-1.968,5.475h26.846a85.546,85.546,0,0,0,1.463-17.939C1791.355,2272.015,1787.041,2272.595,1782.827,2273.1Z" transform="translate(-1654.776 -1843.94)" fill="#703f00"/><path d="M1335.585,965.887a12.778,12.778,0,0,0-.151-4.163,4.1,4.1,0,0,0-2.674-2.977c-.126-2.473-.454-5-1.918-6.989s-4.415-3.1-6.484-1.741a4.889,4.889,0,0,0-1.968,3.961,11.486,11.486,0,0,0,.984,4.466,78.938,78.938,0,0,0,3.961,8.351c1.06,2.018,2.448,4.239,4.693,4.592C1333.642,969.848,1335.408,968.133,1335.585,965.887Z" transform="translate(-1322.385 -854.663)" fill="#e17f00"/><path d="M1649.506,678.49a28.152,28.152,0,0,1-25.584-38.6c1.438-3.633,3.658-6.939,5.021-10.6s1.842-7.973-.177-11.354-6.182-5.273-7.62-8.932c-1.287-3.28.1-7.14,2.5-9.739s5.677-4.188,8.856-5.727c8.427-4.062,13.5-15.517,22.405-18.368s19.832-1.085,25.609,6.283c3.532,4.516,4.819,10.547,8.654,14.811,2.977,3.305,7.191,5.2,10.975,7.569s7.468,5.677,8.175,10.067c1.211,7.62-6.762,13.7-7.9,21.32-.757,5.071,1.615,10.017,2.372,15.088,1.161,7.948-1.741,16.047-6.308,22.632s-10.7,11.909-16.753,17.182c-4.567,3.961-10.042,8.2-16.022,7.14C1657.479,696.151,1652.332,684.091,1649.506,678.49Z" transform="translate(-1545.399 -573.876)" fill="#a12f00"/><path d="M1665.135,1284.843q-8.629,125.044-29.243,248.9l-18.292-.555c2.422-82.707,7.8-169.047,16.3-251.376C1642.7,1279.216,1656.733,1281.234,1665.135,1284.843Z" transform="translate(-1543.115 -1102.316)" fill="#9000e6"/><path d="M1814.414,1275.474a1019.583,1019.583,0,0,1-.606,246.153h-16.425c-.252-9.663-1.363-25.206-1.615-34.869-1.867-73.6-7.115-147.853-7.468-221.477C1797.232,1265.054,1806.618,1271.009,1814.414,1275.474Z" transform="translate(-1670.745 -1090.828)" fill="#9000e6"/><path d="M1734.866,1299.117c-.757-7.922-1.615-15.82-2.548-23.742-7.8-4.466-17.157-10.42-26.139-10.193,0,2.17.025,4.315.05,6.484-8.351-2.523-19.4-3.608-26.77-1.413-.328,3.154-.631,6.308-.959,9.462A90.369,90.369,0,0,0,1734.866,1299.117Z" transform="translate(-1588.649 -1090.754)" opacity="0.2"/><path d="M1683.144,853.448a47.2,47.2,0,0,0-11.758,59.747c8.377,15.088-.151,35.727-4.516,52.43,18.545,10.118,41.581,12.187,60.756,3.255-6.459-16.476-8.957-36.686-3.709-53.591,2.876-9.26,9.108-17.258,11.354-26.694,3.936-16.577-7.166-35.248-23.616-39.713C1703.026,846.585,1690.133,847.846,1683.144,853.448Z" transform="translate(-1578.911 -778.682)" fill="#2900d2"/><rect width="49.755" height="34.137" transform="translate(122.021 158.86)" fill="#fff"/><path d="M1873.267,1281.037a11.9,11.9,0,0,0-3.608,2.069,4.135,4.135,0,0,0-1.413,3.734c-2.119,1.261-4.214,2.725-5.324,4.92-1.11,2.22-.706,5.349,1.438,6.56a4.922,4.922,0,0,0,4.441-.076,12.305,12.305,0,0,0,3.532-2.927,72.382,72.382,0,0,0,5.576-7.367c1.287-1.867,2.624-4.113,1.917-6.282C1877.682,1280.936,1875.361,1280.154,1873.267,1281.037Z" transform="translate(-1726.091 -1102.32)" fill="#e17f00"/><path d="M1864.349,863.6a127.879,127.879,0,0,1,39.411,39.209c4.113,6.459,7.746,13.675,7.569,21.32-.227,9.79-22.1,40.8-30.4,49.1-2.725-2.3-5.9-3.482-8.629-5.8,7.115-6.661,13.448-17.157,16.88-26.291,3.431-9.108,4.062-19.5.555-28.587s-16.072-13.953-25.609-15.921C1860.489,888.78,1863.516,872.229,1864.349,863.6Z" transform="translate(-1726.13 -790.5)" fill="#2900d2"/><path d="M1444.884,879.2q-12.489,17.939-25,35.9c-4.441,6.383-9.184,13.019-16.223,16.3-8.326,3.885-18.419,2.2-26.518-2.2-8.074-4.39-14.583-11.152-20.942-17.788a18.691,18.691,0,0,0-7.9,6.964c8.982,14.18,21.295,30.1,37.67,33.759,11.808,2.624,24.3-1.69,34.036-8.831s17.283-16.854,24.651-26.417C1453.008,906.121,1450.41,891.614,1444.884,879.2Z" transform="translate(-1341.761 -802.164)" fill="#2900d2"/><path d="M1758.2,784.57c.833,5.955,1.69,11.884,2.523,17.838a29.979,29.979,0,0,0,15.366-2.8c-.908-7.645-2.977-15.038-3.886-22.708C1767.964,779.272,1762.439,782.173,1758.2,784.57Z" transform="translate(-1648.24 -725.675)" fill="#e17f00"/><path d="M1772.3,776.9c-4.239,2.372-9.765,5.3-14,7.67.681,4.769,1.337,9.537,2.019,14.331a66.222,66.222,0,0,0,14.255-9.058C1773.691,785.529,1772.808,781.265,1772.3,776.9Z" transform="translate(-1648.314 -725.675)" opacity="0.2"/><path d="M1693.621,659.331a99.33,99.33,0,0,0,10.572,37.872,76.925,76.925,0,0,0,16.6-9.966c5.3-4.214,9.638-10.017,10.748-16.7,1.64-9.865-4.92-20.462-14.508-23.339C1707.448,644.294,1692.89,649.365,1693.621,659.331Z" transform="translate(-1599.935 -628.089)" fill="#e17f00"/><path d="M1672.526,647.215l8.553-9.083c3.76,6.257,10.294,11.556,17.536,10.7,1.993-.227,4.062-.782,5.929-.076,4.012,1.514,4.163,7.166,6.863,10.471a8.075,8.075,0,0,0,11.329.757c.656-8.654,1.06-17.586-2.22-25.635s-10.446-14.987-19.1-15.795c-5.349-.5-10.647,1.337-15.391,3.911-4.542,2.473-8.831,5.7-11.531,10.143C1671.82,637.047,1670.306,642.547,1672.526,647.215Z" transform="translate(-1583.382 -607.218)" fill="#a12f00"/></g></g></g></svg>