<svg xmlns="http://www.w3.org/2000/svg" width="817.919" height="737.8" viewBox="0 0 817.919 737.8"><g transform="translate(-195.894 -553.2)"><path d="M754.471,407.85c-2.15.341-6.081,1.122-10.386,1.815,1.719-.528,3.291-1.03,4.6-1.479,8.729-3,3.252-8.587-1.659-7.976s-26.46,4.665-33.233,3.573c-1.248-.2-2.875-.544-4.7-.969-2.61-1.48-4.647-3.983-.319-7.684,10.645-9.107,7.47-17.948,3.976-14.987-16.1,13.644-27.379,15.607-29.635,25.354a16.5,16.5,0,0,0-5.036,1.486s-45.929,20.568-72.767,36.067l.011-.011-.291.17c-.708.409-1.391.813-2.07,1.215-.3.174-.6.35-.887.523-.665.4-1.305.789-1.939,1.178-.278.171-.569.344-.84.514-.644.4-1.257.79-1.862,1.18-.227.146-.47.3-.691.44-.81.526-1.587,1.043-2.315,1.545l-6.178-15.812c3.316-6.034,3.395-10.184,2.847-12.63.557-.359-.98-3.027-1.3-3.675-3.119-6.263-15.858-31.714-31.155-67.616-17.62-41.358-29.427-36.966-37.421-37.332s-20.4-1.614-20.4-1.614l.02.091-.182-.029h0q-1.3-.209-2.6-.461c-.1-.02-.2-.038-.3-.056-.891-.174-1.784-.364-2.684-.575l-.056-.014a66.686,66.686,0,0,1-18.2-7.287,8.868,8.868,0,0,1-4.366-6.771l-2.273-20.994c.173-.143.37-.279.53-.423,6.952-6.244,12.337-17.258,15.024-30.468.14-.46.3-.916.425-1.377a44.915,44.915,0,0,0,1.185-5.7,4.479,4.479,0,0,0,4.215-1.078l2.865-2.716a10,10,0,0,0,3.1-7.792l-.437-8.048c-.193-3.561-3.035-9.34-9.179-5.071-.006-.067,0-.132-.01-.2l-.33.02c.851-4.322,11.839-65.365-47.318-61.058a58.2,58.2,0,0,0-15.721,3.151,13.318,13.318,0,0,0,1.253-5.124c.143-4.425-2.1-8.705-6.677-12.721L418,137.709c4.169,3.659,6.22,7.484,6.1,11.37a12.344,12.344,0,0,1-1.957,6.063,20.881,20.881,0,1,0-20.841,22c.084,0,.166-.012.25-.014-3.052,7.56-5.6,17.33-4.176,27.039l1.674-.25c-1.305-8.876.947-17.976,3.758-25.217-3.553,15.381,1.545,32.227,2.985,36.488-4.388-1.994-7.261,5.159-7.149,8.424l.291,8.6a10.629,10.629,0,0,0,4.03,7.985l3.3,2.612a4.794,4.794,0,0,0,4.858.646q1.235,1.435,2.552,2.8a44.2,44.2,0,0,0,1.6,5.062,42.016,42.016,0,0,0,13.046,16.326l-.486,4.433h0l-2.8,25.516a8.983,8.983,0,0,1-2.841,5.636,8.824,8.824,0,0,1-3.332,1.928l-.1.033c-1.2.376-2.528.783-3.931,1.2h0a108.963,108.963,0,0,1-12.93,3.1h0s-12.409,1.248-20.4,1.614-19.8-4.026-37.421,37.332c-15.3,35.9-28.034,61.354-31.154,67.616-.294.59-1.581,2.842-1.393,3.515-.891,2.734-1.365,7.627,2.267,14.506l-5.507,14.095c-.658-.452-1.355-.917-2.079-1.391-.236-.155-.491-.314-.735-.472-.5-.323-1.006-.646-1.533-.977-.3-.19-.619-.382-.93-.575-.5-.306-1-.616-1.514-.928-.339-.2-.683-.411-1.031-.617q-.781-.466-1.591-.942c-.355-.208-.711-.417-1.075-.626-.566-.329-1.144-.66-1.727-.993-.354-.2-.7-.4-1.064-.605-.664-.376-1.341-.754-2.023-1.134-.291-.161-.574-.32-.866-.482q-1.475-.817-3-1.644l-.5-.268q-1.278-.691-2.582-1.388c-.4-.214-.807-.428-1.21-.641q-.973-.516-1.956-1.033-.675-.355-1.353-.708-.942-.491-1.888-.983l-1.414-.728c-.625-.323-1.251-.643-1.88-.966l-1.406-.717q-.976-.5-1.954-.99l-1.364-.689q-1.032-.519-2.062-1.033c-.419-.209-.834-.419-1.251-.626q-1.569-.78-3.133-1.553h0c-15.979-7.888-31.056-14.814-37.383-17.689l-.012-.224c-.516-.6-5.954-2.61-11.449-4.528,1-11.133-9.977-15.1-23.385-32.768-2.773-3.653-7.776,4.283.655,15.5,3.428,4.56.9,6.558-1.968,7.433-1.871.015-3.533,0-4.793-.08-6.848-.414-27.011-9.081-31.673-10.751s-11.212,2.592-3.338,7.425c1.18.723,2.6,1.556,4.17,2.446-4.054-1.617-7.723-3.238-9.748-4.042-4.6-1.826-11.292,2.21-3.583,7.307,1.855,1.227,4.259,2.671,6.839,4.155-1.04-.379-1.944-.7-2.622-.908-4.729-1.465-11.091,3.074-3.017,7.562,2.272,1.263,5.417,2.869,8.762,4.525-4.668-.613-9.85,4.026-1.9,7.839,8.325,3.993,25.1,8.7,25.1,8.7l20.086,2.928c6.234,1.215,14.83-3.323,16.528-3.473l3.848,1.644c4.879,3.25,38.226,25.734,82.194,61.884,7.432,6.11,17.63,5.9,20.03,5.514a28.191,28.191,0,0,0,22.541-18.379l6.309-11.627c2.239,1.41,4.6,2.85,7.115,4.318,7.767,4.538,11.92,4.642,13.4,2.02,1.338-1.41,3.634-9.465,6.419-21.277,1.947,11.047,4.294,22.023,6.511,32.814h0c1.764,8.939-1.128,25.833-1.128,25.833a8.281,8.281,0,0,0,1.236,4.542c.017.03.032.061.05.092a15.234,15.234,0,0,0,1.015,1.527l.123.159a23.631,23.631,0,0,0,2.86,3.059c.084.077.169.155.256.232.51.453,1.043.905,1.617,1.356-9.642,16.785-25.486,51.6-22.414,95.291,3.243,46.144,4.9,73.723,4.9,73.723H533.361s6.177-42.43,9.809-81.958c2.418-26.3-10.439-62.92-19.318-84.5,8.324-9,5.6-8.711.957-41.975h0c-.057-.4-.111-.783-.169-1.2l.1-7.628c1.432-.813,5.283-3.085,9.793-9.623.444,7.442.519,11.744.92,11.453,1.12,2.959,5.042,2.866,12.79-2.3,2.43-1.62,4.719-3.2,6.89-4.733l6.534,12.044a28.192,28.192,0,0,0,22.541,18.379c2.4.385,12.6.6,20.03-5.514,37.642-30.95,67.5-51.88,78.378-59.306,2.71,1.671,8.893,6.279,14.312,6.429l20.238,1.53s17.388-.928,26.375-3.007c8.58-1.985,4.521-7.645-.169-8.068,3.622-.886,7.036-1.767,9.528-2.5,8.847-2.616,3.615-8.438-1.317-8.039-.709.056-1.661.17-2.756.312,2.838-.886,5.5-1.77,7.572-2.561C765.019,412.473,759.359,407.072,754.471,407.85ZM407.045,215.976l0,.011-.011-.009ZM412.6,242.45c.026-.024.053-.047.078-.073l.051.209C412.689,242.541,412.646,242.5,412.6,242.45Z" transform="translate(202.5 426.585)" fill="#f2f2f2" style="mix-blend-mode:multiply;isolation:isolate"/><g transform="translate(195.894 553.2)"><path d="M333.553,379.4S289.1,437.54,294.838,519.151c4.266,60.706,6.453,106.65,6.453,106.65h215.8s8.126-65.482,12.905-117.484-35.847-134.736-35.847-134.736S410.5,416.956,333.553,379.4Z" transform="translate(1.531 111.999)" fill="#23315c"/><g transform="translate(299.856 489.12)"><path d="M378.328,387.078l5.644,1.069S381.907,387.69,378.328,387.078Z" transform="translate(-215.961 -363.691)" fill="#1c2542"/><path d="M336.709,443.2c21.99-42.293,111.364-17.076,155.056-44.178l-70.005-7.268c-27.234,2.987-45.5-1.3-76.438-16.4,0,0-54.288,59.6-48.552,141.214,4.266,60.706,4.959,107.466,4.959,107.466h23.031C303.94,564.106,310.953,492.736,336.709,443.2Z" transform="translate(-296.346 -375.356)" fill="#1c2542"/></g><path d="M312.538,488.475h0c-7.2-35.033-15.494-71.554-14.127-107.3l4.018-117.238c89.323-2.843,106.817-34.151,106.817-34.151,39.8,35.358,57.3,32.108,85.313,36.064l7.122,93.474s21.9,51.6,19.249,81.7c-1.533,17.431-12.107,28.459-19.043,32.4l-.127,10.036c6.453,46.946,10.309,44.719-2.238,58.08-5.821,6.2-13.614,9.487-33.7,11.556-37.073,3.821-81.465,1.221-102.216-.409a84.913,84.913,0,0,1-33.1-9.393c-12.349-6.53-19.865-14.365-19.457-20.833C311.054,522.46,314.859,500.234,312.538,488.475Z" transform="translate(5.389 -31.101)" fill="#ffc2c3"/><path d="M412.3,281.639l-9.835-90.811-42.417.545-10.13,92.317a11.755,11.755,0,0,1-8.12,9.952c-6.286,1.977-15.414,4.627-22.318,5.7,2.794,4.014,57.879,45.577,129.922,2.246a88,88,0,0,1-31.358-11.037A11.674,11.674,0,0,1,412.3,281.639Z" transform="translate(26.194 -69.867)" fill="#ffc275"/><path d="M394.464,193.166q-1.141-1.2-2.3-2.324l-40.7.517-6.187,58.625-.1.124L341.5,283.676a11.755,11.755,0,0,1-8.12,9.952c-1.61.507-3.41,1.057-5.308,1.614,8.849-1.664,16.292-4.649,18.284-13.294,4.48-19.441,3.345-27.2,9.32-22.87,8.6,7.462,37.006,15.947,46.984,12.751Z" transform="translate(34.616 -69.853)" fill="#ffa156"/><path d="M261.517,317.759s-20.253,24.736,54.846,68.613C369.132,417.2,295.572,292.962,261.517,317.759Z" transform="translate(-33.078 53.167)" fill="#d18eac"/><g transform="translate(0 232.833)"><g transform="translate(0 74.075)"><path d="M237.655,317.28c-1.412-1.644-30.7-11.249-30.7-11.249l-24.307-4.924-13.341,42.237,26.424,3.853c8.2,1.6,19.51-4.371,21.744-4.569l21.98,9.389Z" transform="translate(-121.051 -267.031)" fill="#ffc275"/><path d="M215.269,329.308c2.093-15.434-12.654-20.322-30.694-44.1-3.648-4.808-10.231,5.632.862,20.388,8.015,10.666-8.73,10.674-8.73,10.674S212.276,351.358,215.269,329.308Z" transform="translate(-113.798 -284.028)" fill="#ffc275"/><path d="M235.365,305.93s-24.541,1.6-33.55,1.053-35.534-11.947-41.666-14.141-14.751,3.408-4.391,9.766,34.936,19.028,34.936,19.028l49.119-6.071Z" transform="translate(-139.074 -275.739)" fill="#ffc275"/><path d="M232.465,309.367s-34.19,4.794-43.213,4.641-28.468-8.493-34.689-10.421-14.59,4.042-3.971,9.946,35.717,17.5,35.717,17.5l46.809-1.917Z" transform="translate(-144.383 -264.931)" fill="#ffc275"/><path d="M236.318,310.686s-33.843,6.845-42.858,7.236-28.442-4.172-34.768-5.722-14.325,4.914-3.371,10.167,33.021,11.444,33.021,11.444l39.975-5.584Z" transform="translate(-140.084 -257.499)" fill="#ffc275"/><path d="M229.983,306.648s-34.453,2.143-43.439,1.295-26.2-8.8-32.257-11.207-14.854,2.907-4.714,9.613,32.742,18.343,32.742,18.343l48.335-.75Z" transform="translate(-144.943 -271.965)" fill="#ffc275"/></g><g transform="translate(100.644)"><path d="M195.76,398.173l11.83-28.526s80.656,36.11,110.051,56.333l44.807-114.7c13.4-28.722,22.851-61.331,40.486-64.383l25.832,2.855c9.56,24.075-29.266,142.026-29.266,142.026l-38.759,71.442A37.09,37.09,0,0,1,331.087,487.4c-3.157.507-16.573.784-26.351-7.254C242.066,428.621,195.76,398.173,195.76,398.173Z" transform="translate(-195.76 -246.9)" fill="#ffc275"/></g><path d="M228.657,332.843c43.189,25.915,56.158,36.274,60.851,42.9.881,1.247,2.375.676,3-.718,14.383-31.938,16.294-41.808,57.4-13.641,12.39,8.489-28.569-50.238-27.244-52.241l-17.128,3.3-20.152,51.588C272.573,355.221,250.023,343.39,228.657,332.843Z" transform="translate(-62.86 -184.956)" fill="#ffa156"/></g><path d="M378.366,245.216s-16.325,1.642-26.84,2.123-26.05-5.3-49.23,49.112c-20.124,47.231-36.883,80.715-40.985,88.953-.493.99-3.167,5.6-1.135,4.816,10.317-3.974,61.313,20.161,72.17,66.805C336.977,476.915,378.366,245.216,378.366,245.216Z" transform="translate(-32.692 -15.743)" fill="#ffc2c3"/><path d="M345.084,550.471H383.8L368.384,449.118Z" transform="translate(51.299 187.168)" fill="#1c2542"/><g transform="translate(304.742 311.762)"><path d="M501.347,417.021c1.923-1.093,7.161-4.168,13.256-13.2L498.829,286.461c4.682,25.959-1.018,87.074-3.715,98.474a32.894,32.894,0,0,1-20.078,23.4,17.956,17.956,0,0,1-5.839,1.389c-14.339,0-35.293-16.412-86.988-3.853-27.5,6.684-42.128,3.064-49.238-.607a16.256,16.256,0,0,1-7.484-8.246c-14.1-33.814-13.539-85.518-13.539-85.518s-6.207,20.011-13.135,43.594c2.1,23.511,17.617,55.351,23.889,84.42,2.111,9.786-8.6,19.321-11.523,30.494,2.077,5.547,8.869,11.636,18.791,16.883a84.914,84.914,0,0,0,33.1,9.393c.961.076,1.987.154,3.042.233-19.29-15.522-22.5-35.775-21.461-50.9A29.926,29.926,0,0,1,367.606,418.5c13.41-3.1,31.039-3.857,46.506-4.806,29.393-1.806,70.292,9.519,87.327,14.934-.073-.529-.145-1.031-.22-1.572Z" transform="translate(-298.813 -286.461)" fill="#d18eac"/></g><path d="M480.092,318.818s17.551,20.348-54.846,68.613C375.319,420.713,446.037,294.02,480.092,318.818Z" transform="translate(112.95 54.275)" fill="#d18eac"/><g transform="translate(486.317 234.999)"><g transform="translate(203.763 86.668)"><path d="M512.3,310.713c8.039-4.136,22.7-1.7,22.7-1.7l24.788.5,3.931,44.146L537.1,351.649c-8.35-.231-18.1-8.529-20.243-9.212L493.377,346.8Z" transform="translate(-493.377 -274.634)" fill="#ffc275"/><path d="M506.068,328.532c1.279-15.524,16.729-17.072,39.46-36.339,4.595-3.9,8.774,7.735-5.232,19.716-10.121,8.659,6.223,12.328,6.223,12.328S504.242,350.714,506.068,328.532Z" transform="translate(-480.989 -291.426)" fill="#ffc275"/><path d="M513.41,303.209s23.614,6.921,32.524,8.358,37.261-3.9,43.722-4.7,13.664,6.55,2.183,10.492-38.2,10.943-38.2,10.943l-46.643-16.659Z" transform="translate(-480.026 -279.7)" fill="#ffc275"/><path d="M515.154,311.078s32.342,12.15,41.183,13.972,29.619-2.071,36.107-2.594,13.374,7.135,1.735,10.578-38.634,9.279-38.634,9.279l-45.283-12.1Z" transform="translate(-476.821 -271.869)" fill="#ffc275"/><path d="M507.762,314.467s31.563,14.078,40.28,16.428,28.664,2.143,35.172,2.011,12.925,7.927,1.1,10.662-34.7,3.956-34.7,3.956L511.8,333.339Z" transform="translate(-479.272 -268.497)" fill="#ffc275"/><path d="M517.457,306.639s33.172,9.619,42.125,10.754,27.472-2.869,33.9-3.891,13.876,6.081,2.533,10.413S560.1,334.667,560.1,334.667l-47.021-11.29Z" transform="translate(-474.056 -276.287)" fill="#ffc275"/></g><path d="M625.013,399.259l-11.83-28.527s-80.656,36.11-110.051,56.333l-44.807-114.7c-13.4-28.722-22.851-61.331-40.486-64.383l-25.832,2.855c-9.56,24.075,29.266,142.026,29.266,142.026l38.759,71.442a37.089,37.089,0,0,0,29.654,24.179c3.159.507,16.573.784,26.351-7.254C578.707,429.707,625.013,399.259,625.013,399.259Z" transform="translate(-390.493 -247.986)" fill="#ffc275"/><path d="M481.471,369.031l-24.5-62.727c-5.583,2.614-9.833,4.559-10.425,4.709-1.426.359-23.051,31.779-33.956,47.732l13.588,25.047c9.227-18.513,29.434-35.773,32.677-36.427,3.812-.768,9.356,20.207,13.325,30.955a2.548,2.548,0,0,0,4.381.714c4.753-5.778,12.323-12.845,19.251-18.9C490.316,363.3,485.426,366.31,481.471,369.031Z" transform="translate(-368.832 -189.952)" fill="#ffa156"/></g><path d="M385.187,246.3s16.325,1.642,26.84,2.123,26.05-5.3,49.23,49.112c20.124,47.231,36.883,80.715,40.985,88.953.493.99,3.167,5.6,1.135,4.816-10.317-3.974-61.313,20.161-72.17,66.805-2.438,10.471,1.422-42.032-16.112-98.945C397.888,303.315,385.187,246.3,385.187,246.3Z" transform="translate(90.621 -14.662)" fill="#ffc2c3"/><g transform="translate(317.4)"><g transform="translate(23.98 20.848)"><g transform="translate(7.112 2.674)"><path d="M372.859,194.344l7.567-11.44c8.792-7.017,12.82,1.069,13.085,5.947l.572,10.588A13.143,13.143,0,0,1,390,209.69l-3.769,3.573a5.931,5.931,0,0,1-9.085-1.1l-5.448-8.529Z" transform="translate(-271.095 -104.005)" fill="#ffc275"/><path d="M320.909,204.193s10.356,56.774,14.773,67.22c9.73,23,38.305,35.685,52.395,36.81,8.861.706,16.466-2.5,20.536-6.159,12.358-11.1,20.972-33.644,22.114-59.313.685-15.386-.875-48.859-5.211-64.622-4.928-17.92-21.784-40.846-59.74-35.292C337.332,147,320.529,165.677,320.909,204.193Z" transform="translate(-320.903 -141.99)" fill="#ffc275"/></g><path d="M420.15,181.8s-14.493,23.948-94.859,44.773c0,0-30.292-80.165,44.869-85.637,80.676-5.874,62.182,80.653,62.182,80.653S429.282,218.6,420.15,181.8Z" transform="translate(-315.405 -140.65)" fill="#23315c"/><path d="M402.108,200.217S378.1,178.673,342.6,201.649a5.811,5.811,0,0,0-2.565,4.014,71.052,71.052,0,0,0,1.4,26.5s8.853,12.613,30.946,14.2c16.987,1.223,27.248-16.659,27.248-16.659S402.986,221.954,402.108,200.217Z" transform="translate(-295.672 -90.492)" fill="#fff"/><path d="M363.928,212.743s-29.777-16.472-41.054-28.339" transform="translate(-311.858 -97.108)" fill="none" stroke="#fff" stroke-miterlimit="10" stroke-width="3.152"/><path d="M362.459,224.478c-3.01-.5-22.665-6.63-37.143-23.976" transform="translate(-309.464 -81.088)" fill="none" stroke="#fff" stroke-miterlimit="10" stroke-width="1.867"/><path d="M382.542,181.057s1.539,26.037-12.527,30.085" transform="translate(-265.636 -100.439)" fill="none" stroke="#fff" stroke-miterlimit="10" stroke-width="2"/><path d="M383.486,197.366s-3.531,20-15.038,25.7" transform="translate(-267.172 -84.209)" fill="none" stroke="#fff" stroke-miterlimit="10" stroke-width="2"/><path d="M339.852,199.187l-9.178-12.43c-7.934-10.379-13.533,2.384-13.359,7.6l.382,11.314a13.99,13.99,0,0,0,5.3,10.5l4.341,3.436a6.344,6.344,0,0,0,9.56-2.055l2.474-3.91Z" transform="translate(-317.312 -98.697)" fill="#ffc275"/><g transform="translate(62.054 119.474)"><path d="M383.218,200.532a42.261,42.261,0,0,1-8.52,2.135,58.7,58.7,0,0,1-8.566.569c-2.866-.02-5.74-.233-8.641-.545-1.452-.15-2.9-.4-4.377-.547-1.468-.211-2.933-.473-4.47-.583a43.848,43.848,0,0,0,4.05,2.111,44.943,44.943,0,0,0,4.322,1.49,35.148,35.148,0,0,0,9.1,1.3,30.246,30.246,0,0,0,9.15-1.353A19.026,19.026,0,0,0,383.218,200.532Z" transform="translate(-348.644 -200.532)" fill="#cbb"/><path d="M383.431,205.767a42.26,42.26,0,0,1-8.52,2.135,58.7,58.7,0,0,1-8.566.569c-2.866-.02-5.74-.235-8.641-.545-1.452-.15-2.9-.4-4.377-.547-1.468-.212-2.933-.473-4.47-.583a43.579,43.579,0,0,0,4.05,2.109,44.364,44.364,0,0,0,4.322,1.492,35.149,35.149,0,0,0,9.1,1.3,30.309,30.309,0,0,0,9.15-1.353A19.025,19.025,0,0,0,383.431,205.767Z" transform="translate(-348.435 -195.322)" fill="#cbb"/></g></g><path d="M405.95,156.867S422.679,168.9,388.266,187.2s-66.914,32.259-55.92,49.11" transform="translate(-280.725 -103.663)" fill="none" stroke="#23315c" stroke-miterlimit="10" stroke-width="1"/><ellipse cx="27.483" cy="27.686" rx="27.483" ry="27.686" fill="#23315c"/><path d="M331.021,161.861s18.161-13.962-.477-30.334" transform="translate(-280.357 -128.879)" fill="none" stroke="#23315c" stroke-miterlimit="10" stroke-width="1"/><path d="M332.1,149.145s-18.641,26.962-14.816,52.963" transform="translate(-293.865 -111.347)" fill="none" stroke="#23315c" stroke-miterlimit="10" stroke-width="1"/></g></g></g></svg>