<svg xmlns="http://www.w3.org/2000/svg" width="487.929" height="969.64" viewBox="0 0 487.929 969.64"><g transform="translate(-190.5 -739.09)"><ellipse cx="176.441" cy="17.865" rx="176.441" ry="17.865" transform="translate(190.5 1673)" fill="#7cb8bf"/><g transform="translate(237.467 737.2)"><g transform="translate(143.564 4.427)"><path d="M326.926,784.764a27.142,27.142,0,0,0,10.435-17.549,24.112,24.112,0,0,0-5.692-19.446,20.485,20.485,0,0,0-18.972-6.324c-1.265,3.636-.158,7.589,1.9,10.909,1.9,3.32,4.743,6.008,6.8,9.17A33.53,33.53,0,0,1,326.926,784.764Z" transform="translate(-310.346 -739.389)" fill="#f47a41"/></g><g transform="translate(25.539 65.114)"><g transform="translate(1.739 4.743)"><rect width="27.668" height="10.277" transform="translate(7.117 30.84) rotate(-101.099)" fill="#f37576"/><path d="M244.637,813.978a1.852,1.852,0,0,1-1.739-1.423l-5.375-27.035a1.23,1.23,0,0,1,.316-1.265,2.835,2.835,0,0,1,1.107-.791l10.118-2.055a1.787,1.787,0,0,1,2.055,1.423l5.375,27.035a1.23,1.23,0,0,1-.316,1.265,2.836,2.836,0,0,1-1.107.791l-10.118,2.055Zm-3.32-27.352,4.585,23.715,6.8-1.265-4.585-23.715Z" transform="translate(-237.461 -781.385)" fill="#333260"/></g><rect width="5.534" height="11.858" transform="translate(2.894 9.477) rotate(-101.099)" fill="#f47a41"/><path d="M239.269,789.634a2.246,2.246,0,0,1-.949-.316,2.836,2.836,0,0,1-.79-1.107l-1.107-5.534a1.23,1.23,0,0,1,.316-1.265,2.835,2.835,0,0,1,1.107-.791l11.541-2.213a1.787,1.787,0,0,1,2.055,1.423l1.107,5.534a1.787,1.787,0,0,1-1.423,2.055l-11.541,2.214Zm.949-5.85.474,2.214,8.221-1.581-.474-2.213Z" transform="translate(-236.361 -778.385)" fill="#333260"/></g><g transform="translate(71.213 21.502)"><path d="M376.837,783.85c-1.9-14.071-14.545-24.664-28.142-28.774s-27.984-3.32-42.213-2.688c-7.273.316-14.7.474-21.66,2.53s-13.6,6.482-16.6,13.122c-3.162,6.64-2.055,14.545.158,21.66,5.217,16.443,16.917,30.355,30.513,41.264,5.375,4.269,11.383,8.221,18.182,8.7,7.431.474,14.229-3.162,20.711-6.64,9.8-5.375,19.763-10.909,27.51-18.814C373.043,806.143,378.418,794.917,376.837,783.85Z" transform="translate(-264.664 -750.175)" fill="#f47a41"/></g><g transform="translate(2.36 82.687)"><g transform="translate(167.398 844.101)"><path d="M358.007,1329.413a92.266,92.266,0,0,0-15.968-4.585c-2.688-.474-5.692-.633-8.063.632-3.162,1.739-4.743,5.534-5.059,9.012-.316,3.636.158,7.273-.316,10.751a113.534,113.534,0,0,0,60.553,8.854c-1.423-6.8-6.324-12.332-12.174-16.284S364.647,1331.626,358.007,1329.413Z" transform="translate(-326.988 -1322.773)" fill="#1181a8"/><path d="M375.358,1357.392h0a115.667,115.667,0,0,1-46.8-9.96,1.593,1.593,0,0,1-.949-1.739c.158-1.739.158-3.478.158-5.375,0-1.739,0-3.636.158-5.375.474-4.9,2.688-8.7,6.008-10.435a10.611,10.611,0,0,1,5.217-1.106,20.365,20.365,0,0,1,3.953.474,96.145,96.145,0,0,1,16.284,4.743c6.482,2.372,13.28,4.743,19.288,8.7,6.8,4.585,11.383,10.751,12.806,17.233a1.612,1.612,0,0,1-.316,1.423,2.835,2.835,0,0,1-1.107.791C385.16,1357.075,380.259,1357.392,375.358,1357.392Zm-44.268-12.648a111.539,111.539,0,0,0,44.268,9.17h0a102.867,102.867,0,0,0,12.174-.632c-1.581-5.059-5.534-9.644-10.909-13.439-5.534-3.794-12.174-6.008-18.5-8.221-5.059-1.739-10.277-3.636-15.652-4.585a31.463,31.463,0,0,0-3.478-.316,8.243,8.243,0,0,0-3.636.791c-3.162,1.739-3.953,6.008-4.111,7.747-.158,1.581-.158,3.32-.158,5.059Z" transform="translate(-327.581 -1323.4)" fill="#333260"/></g><g transform="translate(42.371 843.785)"><path d="M280.646,1329.413a92.268,92.268,0,0,1,15.968-4.585c2.688-.474,5.692-.633,8.063.632,3.162,1.739,4.743,5.534,5.059,9.012.316,3.636-.158,7.273.316,10.751a113.534,113.534,0,0,1-60.553,8.854c1.423-6.8,6.324-12.332,12.174-16.284C267.523,1334,274.006,1331.626,280.646,1329.413Z" transform="translate(-247.919 -1322.457)" fill="#1181a8"/><path d="M264.468,1357.508a110.514,110.514,0,0,1-14.545-.949,1.189,1.189,0,0,1-1.107-.791,2.125,2.125,0,0,1-.316-1.423c1.423-6.64,6.008-12.648,12.806-17.233,6.008-3.952,12.806-6.324,19.288-8.7a107.732,107.732,0,0,1,16.284-4.743,20.384,20.384,0,0,1,3.953-.474,11.021,11.021,0,0,1,5.217,1.107c3.32,1.739,5.534,5.533,6.008,10.435.158,1.9.158,3.636.158,5.375,0,1.9,0,3.636.158,5.375a1.592,1.592,0,0,1-.949,1.739A112.19,112.19,0,0,1,264.468,1357.508Zm-12.174-4.111a112.983,112.983,0,0,0,56.442-8.538,22.2,22.2,0,0,1,0-4.585c0-1.739,0-3.32-.158-5.059s-.949-6.008-4.111-7.747a8.243,8.243,0,0,0-3.636-.791c-.949,0-2.055.158-3.478.316-5.375.948-10.593,2.846-15.652,4.585-6.324,2.213-12.964,4.585-18.5,8.221C257.828,1343.753,254.034,1348.338,252.294,1353.4Z" transform="translate(-248.5 -1323.2)" fill="#333260"/></g><g transform="translate(179.389 47.588)"><path d="M406.1,969.858c-17.233-18.34-34.624-36.838-48.063-58.023s-22.608-46.007-21.818-71.146c.158-7.115,2.372-19.446,9.486-20.079,4.585-.474,11.7,5.059,14.071,9.012,15.336,26.245,41.581,58.972,52.331,93.28,28.142-22.134,56.284-44.426,84.426-66.56,5.059,6.008,10.118,11.858,15.02,17.865q-44.11,49.565-91.382,95.967c-2.055,2.055-4.427,4.11-7.273,3.953C410.209,973.968,408,971.913,406.1,969.858Z" transform="translate(-334.58 -819.03)" fill="#f9cfc0"/></g><g transform="translate(179.248 47.588)"><path d="M359.775,829.622c-2.372-3.953-9.328-9.486-14.071-9.012-7.115.632-9.17,12.964-9.486,20.079-.79,24.506,7.905,48.537,20.711,69.406a382.225,382.225,0,0,0,36.521-27.035C382.068,863.614,368.945,845.432,359.775,829.622Z" transform="translate(-334.441 -819.03)" fill="#f37576"/></g><g transform="translate(35.876 47.114)"><path d="M274.437,826.138c-8.854,8.379-13.122,20.553-16.284,32.411a356.408,356.408,0,0,0-12.332,109.722c.158,4.9.949,10.593,4.9,13.438,3.794,2.688,9.328,1.581,12.964-1.423,3.636-2.846,5.692-7.273,7.747-11.383,16.759-37.154,23.083-78.1,28.774-118.576.79-6.008,1.581-12.016.158-17.865-1.581-5.85-6.008-11.225-11.858-12.016C283.291,819.656,278.232,822.66,274.437,826.138Z" transform="translate(-243.753 -818.708)" fill="#f9cfc0"/></g><g transform="translate(40.751 46.956)"><path d="M298.46,850.328c.79-6.008,1.581-12.016.158-17.865-1.581-5.85-6.008-11.225-11.858-12.016-5.217-.791-10.277,2.213-14.071,5.85-8.854,8.379-13.122,20.553-16.284,32.411a322.225,322.225,0,0,0-7.905,36.679c13.122,5.533,26.4,10.751,39.683,15.968C292.452,891.276,295.614,870.723,298.46,850.328Z" transform="translate(-246.879 -818.55)" fill="#f37576"/></g><g transform="translate(42.056 406.161)"><path d="M280.285,1463.147h30.988c3.636-146.085,15.336-280.155,36.205-415.647H251.195c-4.269,31.778-.474,64.821,3.162,97.074Q271.906,1303.228,280.285,1463.147Z" transform="translate(-247.718 -1045.761)" fill="#f37576"/></g><g transform="translate(143.398 406.161)"><path d="M367.254,1463.206c9.486-111.619,19.13-223.4,21.185-335.648.474-26.719.632-53.754-2.53-80.157H313.5c7.273,141.816,21.976,277.309,24.822,415.647h28.932Z" transform="translate(-311.761 -1045.819)" fill="#f37576"/></g><g transform="translate(28.619 46.64)"><path d="M403.167,979.566c2.055-27.51,12.174-53.912,16.6-81.106s2.213-58.023-16.6-78.26H288.544c-18.814,20.237-21.027,50.909-16.6,78.26,4.427,27.193,14.545,53.6,16.6,81.106,3.32,44.9-14.545,88.062-29.723,130.433-15.178,42.055-24.822,105.3-12.174,147.982l197.942-6.64c8.7-48.853,3.478-99.287-11.7-141.342C417.713,1067.628,399.847,1024.308,403.167,979.566Z" transform="translate(-239.219 -818.303)" fill="#f37576"/></g><g transform="translate(0 47.01)"><path d="M270.33,986.78c7.589-.474,13.755-7.115,16.126-14.387s1.265-15.178-.316-22.608C276.812,905.2,248.2,865.675,243.295,820.3l-20.4,7.589c3,43.952,13.28,87.114,23.557,129.959,1.581,6.64,3.32,13.439,6.956,19.13S263.532,987.1,270.33,986.78Z" transform="translate(-221.003 -818.615)" fill="#f9cfc0"/></g><g transform="translate(90.586 44.876)"><path d="M280.577,838.288c-.79,3.478-.79,7.431,1.423,10.277,3.162,4.111,9.328,3.794,14.545,3.162a16.7,16.7,0,0,0,7.273,13.122,17.346,17.346,0,0,0,15.02,2.055A184.1,184.1,0,0,1,295.6,819,28.98,28.98,0,0,0,280.577,838.288Z" transform="translate(-278.357 -817.236)" fill="#f37576"/><path d="M313.785,870.082a18.453,18.453,0,0,1-10.435-3.162,18.76,18.76,0,0,1-7.905-12.648,24.482,24.482,0,0,1-3.478.158h0c-5.059,0-8.537-1.423-10.751-4.269-2.846-3.478-2.372-8.221-1.739-11.7a31.259,31.259,0,0,1,15.81-20.4,1.512,1.512,0,0,1,1.423,0,1.672,1.672,0,0,1,.949,1.107,177.734,177.734,0,0,0,22.925,47.43,1.537,1.537,0,0,1,.158,1.423,1.91,1.91,0,0,1-1.107,1.107A16.814,16.814,0,0,1,313.785,870.082Zm-16.759-19.447a1.435,1.435,0,0,1,1.107.474,1.952,1.952,0,0,1,.632,1.265,15.077,15.077,0,0,0,6.64,11.858,14.654,14.654,0,0,0,8.537,2.53,15.341,15.341,0,0,0,2.688-.158,178.7,178.7,0,0,1-21.344-44.268,28.2,28.2,0,0,0-12.332,17.075c-.632,2.688-.949,6.324,1.107,8.7,1.581,1.9,4.111,2.846,8.063,2.846h0a42.5,42.5,0,0,0,4.9-.316C296.868,850.636,297.026,850.636,297.026,850.636Z" transform="translate(-278.996 -817.884)" fill="#333260"/></g><g transform="translate(129.223 44.94)"><path d="M342.66,838.288c.791,3.478.791,7.431-1.423,10.277-3.162,4.111-9.328,3.794-14.545,3.162a16.7,16.7,0,0,1-7.273,13.122A17.346,17.346,0,0,1,304.4,866.9,184.1,184.1,0,0,0,327.641,819,28.533,28.533,0,0,1,342.66,838.288Z" transform="translate(-302.873 -817.3)" fill="#f37576"/><path d="M310.653,870.059a19.114,19.114,0,0,1-6.008-.949A1.91,1.91,0,0,1,303.538,868a1.486,1.486,0,0,1,.158-1.423,175.453,175.453,0,0,0,22.925-47.43,1.672,1.672,0,0,1,.949-1.107,2.194,2.194,0,0,1,1.423,0,31.259,31.259,0,0,1,15.81,20.4c.79,3.32,1.107,8.063-1.739,11.7-2.213,2.846-5.692,4.269-10.751,4.269-1.265,0-2.53-.158-3.478-.158a18.76,18.76,0,0,1-7.905,12.648A17.952,17.952,0,0,1,310.653,870.059Zm-2.688-3.636a15.341,15.341,0,0,0,2.688.158,14.986,14.986,0,0,0,15.178-14.387,1.952,1.952,0,0,1,.632-1.265,1.23,1.23,0,0,1,1.265-.316,40.186,40.186,0,0,0,4.9.316c3.953,0,6.482-.948,8.063-2.846,1.9-2.53,1.581-6.166,1.107-8.7a27.184,27.184,0,0,0-12.332-17.075A193.139,193.139,0,0,1,307.965,866.422Z" transform="translate(-303.434 -817.925)" fill="#333260"/></g><g transform="translate(109.376 79.184)"><path d="M307.67,916.288h0a1.751,1.751,0,0,1-1.739-1.265l-15.02-67.035a1.706,1.706,0,0,1,3.32-.791l13.755,61.5c8.379-21.976,12.269-32.418,16.538-55.5a1.768,1.768,0,0,1,3.478.632c-4.743,25.138-9.424,37.635-18.751,61.351A1.9,1.9,0,0,1,307.67,916.288Z" transform="translate(-290.881 -839.585)" fill="#333260"/></g><g transform="translate(105.137 151.303)"><rect width="44.901" height="25.612" transform="translate(1.739 1.739)" fill="#e1f3fa"/><path d="M334.84,914.291h-44.9a1.755,1.755,0,0,1-1.739-1.739V886.939a1.754,1.754,0,0,1,1.739-1.739h44.9a1.754,1.754,0,0,1,1.739,1.739v25.612A1.869,1.869,0,0,1,334.84,914.291Zm-43.162-3.32H333.1V888.678H291.678Z" transform="translate(-288.2 -885.2)" fill="#333260"/></g></g><g transform="translate(108.429 82.687)"><path d="M313.347,885.935a143.648,143.648,0,0,0,27.51-37c1.581-3,2.846-6.64,1.265-9.486-1.739-2.846-5.692-3.32-8.537-5.217-3.478-2.213-5.059-6.482-6.166-10.435a95.991,95.991,0,0,1-3.636-32.094c-8.537-.316-17.233-.791-25.77-1.107-.474,14.862-.949,30.039-6.008,44.11a26.715,26.715,0,0,0-1.9,6.957c-.158,2.688.79,5.375,1.739,7.905A121.412,121.412,0,0,0,313.347,885.935Z" transform="translate(-288.034 -788.861)" fill="#f9cfc0"/></g><g transform="translate(101.109 9.012)"><path d="M344.2,780.8c.158,5.375,2.846,10.276,3.32,15.652.632,8.063-3.794,15.652-8.063,22.45-3.953,6.324-9.17,13.281-16.443,13.122-3.478,0-6.8-1.739-9.8-3.478-7.273-4.111-14.545-8.7-20.079-15.02-9.012-10.435-9.17-32.094-5.375-45.375s10.435-18.34,23.715-22.609c7.273-2.213,16.443-2.055,23.4,1.265s12.174,10.276,12.174,18.024C346.734,770.207,344.2,775.424,344.2,780.8Z" transform="translate(-283.429 -742.223)" fill="#f9cfc0"/></g><g transform="translate(84.797)"><path d="M323.306,738.561c3.32.158,6.64.316,9.486,1.9a13.1,13.1,0,0,1,6.008,9.328c.632,3.794-.316,7.747-1.739,11.225-3.32,7.747-9.486,14.071-16.759,18.5s-15.336,7.115-23.4,9.644c-1.107,8.7-2.055,17.233-3.162,25.929-7.589-9.486-14.545-19.763-17.549-31.62-3-11.7-1.107-25.3,7.273-33.992,4.9-5.059,11.7-8.063,18.656-9.644S316.191,738.244,323.306,738.561Z" transform="translate(-273.254 -736.505)" fill="#f47a41"/></g><g transform="translate(140.283 50.036)"><path d="M320.118,769.9a48.3,48.3,0,0,1,1.581,11.541c0,2.688-.316,5.534-2.372,7.273-2.53,2.055-6.324.791-9.328-.474Z" transform="translate(-308.32 -768.237)" fill="#f9cfc0"/></g><g transform="translate(0 67.984)"><path d="M251.013,863.543c-4.427,2.055-13.439,6.324-18.023,7.589-1.739.474-9.96,5.692-11.383,4.743-1.265-.791,2.055-7.431,1.739-9.012-3.794-14.229.316-29.565,4.9-43.636s11.858-27.035,19.13-40a3.865,3.865,0,0,1,1.423-1.739c1.423-.791,3.162.474,3.636,2.055a8.2,8.2,0,0,1-.474,4.743,32.647,32.647,0,0,0,1.581,19.763c2.846,6.957,8.221,13.6,6.64,20.869-1.423,7.273-9.012,11.383-12.964,17.707C243.74,852.476,247.851,857.536,251.013,863.543Z" transform="translate(-219.562 -779.592)" fill="#e1f3fa"/><path d="M222.725,878.223a4.617,4.617,0,0,1-1.423-.316c-1.9-1.265-.949-3.953,0-7.115a17.115,17.115,0,0,0,.79-3c-3.953-15.02.474-30.83,4.9-44.426,4.743-14.229,12.174-27.51,19.288-40.316a6.894,6.894,0,0,1,2.055-2.372,3.187,3.187,0,0,1,1.739-.474,5.017,5.017,0,0,1,4.427,3.636,10.727,10.727,0,0,1-.316,5.059l-.158.474a31.361,31.361,0,0,0,1.423,18.656c.79,1.739,1.739,3.636,2.53,5.375,2.688,5.217,5.375,10.593,4.269,16.443-.949,4.9-4.427,8.537-7.747,12.016a49.586,49.586,0,0,0-5.375,6.324c-2.372,3.795-.632,7.115,2.372,12.332a23.811,23.811,0,0,0,1.581,2.688,1.873,1.873,0,0,1,.158,1.265,1.426,1.426,0,0,1-.949.949,151.346,151.346,0,0,1-18.34,7.747,29.787,29.787,0,0,0-3,1.581C227.152,876.8,224.465,878.223,222.725,878.223Zm0-3.32v0Zm27.51-91.224h0a2.017,2.017,0,0,0-.79,1.107c-7.115,12.648-14.387,25.771-18.972,39.683-4.269,13.122-8.7,28.458-4.9,42.529.316,1.107-.158,2.53-.949,4.9a13.354,13.354,0,0,0-.791,2.688c1.581-.632,4.269-2.055,5.692-2.688a21.307,21.307,0,0,1,3.794-1.739c4.111-1.107,11.7-4.585,16.126-6.64a9.07,9.07,0,0,0-.632-1.107c-2.846-4.9-5.85-10.119-2.213-15.81a48.713,48.713,0,0,1,5.85-6.957c3.162-3.162,6.008-6.324,6.956-10.276.949-4.743-1.423-9.328-3.953-14.229-.949-1.9-1.9-3.794-2.688-5.692a33.237,33.237,0,0,1-1.581-20.711l.158-.474a6.254,6.254,0,0,0,.316-3.32C251.184,784.153,250.551,783.678,250.235,783.678Z" transform="translate(-220.207 -780.2)" fill="#333260"/></g><g transform="translate(327.479 125.848)"><path d="M496.167,850.153,468.658,817.9c-4.427,1.739-7.273,6.166-9.012,10.593s-2.688,9.328-4.743,13.6a27.41,27.41,0,0,1-26.4,14.861,61.146,61.146,0,0,0,24.98,30.672,66.04,66.04,0,0,1,39.525-30.2c2.055-.474,4.743-1.423,4.9-3.636C498.064,852.366,497.116,851.259,496.167,850.153Z" transform="translate(-426.666 -816.161)" fill="#e1f3fa"/><path d="M454.154,889.843a2.248,2.248,0,0,1-.949-.316,62.224,62.224,0,0,1-25.77-31.462,1.74,1.74,0,0,1,1.9-2.214c.632,0,1.423.158,2.055.158h0A25.763,25.763,0,0,0,454,842.1a41.071,41.071,0,0,0,2.846-7.747c.632-1.9,1.107-3.795,1.9-5.692,2.213-5.85,5.692-9.96,9.96-11.7a1.509,1.509,0,0,1,1.9.474l27.51,32.253c.949.948,2.372,2.688,2.055,4.9-.316,3.636-4.585,4.743-6.166,5.059a63.692,63.692,0,0,0-38.577,29.249c-.158.474-.632.632-1.107.791A.155.155,0,0,1,454.154,889.843Zm-22.608-30.513a57.793,57.793,0,0,0,21.976,26.4A66.665,66.665,0,0,1,493.2,856.325c2.371-.632,3.478-1.265,3.636-2.213a5,5,0,0,0-1.265-2.372l-26.719-31.3c-3.636,2.055-5.692,6.008-6.956,9.17-.632,1.739-1.265,3.636-1.739,5.375a57.389,57.389,0,0,1-3,8.221A29,29,0,0,1,431.545,859.329Z" transform="translate(-427.34 -816.8)" fill="#333260"/></g><g transform="translate(347.939 53.651)"><rect width="51.857" height="168.378" transform="translate(41.022 1.751) rotate(13.462)" fill="#095088"/><path d="M492.484,950.525h-.474l-50.434-12.016a1.684,1.684,0,0,1-1.265-2.055L479.52,772.5a1.83,1.83,0,0,1,.791-1.107,1.194,1.194,0,0,1,1.265-.158l50.434,12.016a1.684,1.684,0,0,1,1.265,2.055L494.065,949.1a1.83,1.83,0,0,1-.791,1.107A1.208,1.208,0,0,1,492.484,950.525Zm-48.379-15.02L491.22,946.73l38.419-160.473-47.114-11.225Z" transform="translate(-440.281 -771.134)" fill="#333260"/></g><g transform="translate(1.777 147.804)"><path d="M223.021,841.775a2.246,2.246,0,0,1-.949-.316,1.741,1.741,0,0,1-.474-2.371,19.42,19.42,0,0,1,13.913-8.379,1.746,1.746,0,1,1,.316,3.478,15.443,15.443,0,0,0-11.383,6.957A1.717,1.717,0,0,1,223.021,841.775Z" transform="translate(-221.331 -830.687)" fill="#333260"/></g><g transform="translate(335.87 165.449)"><path d="M444.9,859.48a2.246,2.246,0,0,1-.949-.316,27.118,27.118,0,0,1-11.225-15.178,1.651,1.651,0,1,1,3.162-.949,24.091,24.091,0,0,0,9.8,13.122,1.741,1.741,0,0,1,.474,2.371A1.325,1.325,0,0,1,444.9,859.48Z" transform="translate(-432.647 -841.847)" fill="#333260"/></g></g><path d="M1210.309,1957.859l3.368-1.5,3.616-1.088-11.245-11.7,1.04-3.25,14.82,13.316,17.909-10.066,11.85-.335,6.848,1.173,3.168,10.064s-5.053,10.713-8.348,13.186-8.128,6.387-8.128,6.387l-5.272,2.678L1223.9,1969.1Z" transform="translate(-860.862 -1138.611)" fill="#e2f2fc"/><path d="M696.785-1029.413c-6.062,3.536-14.144-2.357-14.144-2.357v-25.762h17.848v25.762Z" transform="translate(-363.5 2701)" fill="#f9cfc0"/><path d="M686.345-1029.413c6.062,3.536,14.144-2.357,14.144-2.357v-25.762H682.641v25.762Z" transform="translate(-267.5 2701)" fill="#f9cfc0"/></g></svg>