<svg xmlns="http://www.w3.org/2000/svg" width="112" height="113" viewBox="0 0 112 113"><g transform="translate(-664 -1538)"><ellipse cx="56" cy="12" rx="56" ry="12" transform="translate(664 1627)" fill="#dbe7fd"/><path d="M.007,70.564a2.278,2.278,0,0,0,2.271,2.542l4.613.014a2.3,2.3,0,0,0,2.285-1.985c.1-.7.257-1.585.486-2.585h44.6c.229.985.414,1.885.5,2.585a2.284,2.284,0,0,0,2.285,1.985l4.613-.014a2.271,2.271,0,0,0,2.271-2.542c-.657-5.413-3.656-18.423-16.981-29.663A74.359,74.359,0,0,1,38.6,45.957c.885.657,1.628,1.342,2.428,2.028H22.8a55.264,55.264,0,0,1,11.24-7.341C58.619,28.433,63.132,9.4,63.96,2.555A2.278,2.278,0,0,0,61.689.013L57.062,0a2.3,2.3,0,0,0-2.285,1.985c-.1.7-.257,1.585-.486,2.585H9.676c-.229-1-.386-1.871-.486-2.585A2.284,2.284,0,0,0,6.9,0L2.292.013A2.289,2.289,0,0,0,.007,2.555c.743,6.127,4.47,21.979,22.836,34C4.491,48.585.75,64.437.007,70.564Zm31.977-39.2A54.4,54.4,0,0,1,22.8,25.134H41.152A52.866,52.866,0,0,1,31.983,31.361ZM50.707,13.709a40.262,40.262,0,0,1-3,4.57H16.274a36.721,36.721,0,0,1-3-4.57ZM13.26,59.41a40.262,40.262,0,0,1,3-4.57H47.593a38.8,38.8,0,0,1,3.028,4.57Z" transform="translate(688.366 1538.001)" fill="#5600ff"/></g></svg>