<svg xmlns="http://www.w3.org/2000/svg" xmlns:xlink="http://www.w3.org/1999/xlink" width="376" height="809" viewBox="0 0 376 809"><defs><clipPath id="a"><rect width="376" height="809" transform="translate(0 482)" fill="#fff" stroke="#707070" stroke-width="1"/></clipPath><linearGradient id="b" x1="0.15" y1="0.105" x2="1.221" y2="1.072" gradientUnits="objectBoundingBox"><stop offset="0" stop-color="#8cf9d8"/><stop offset="1" stop-color="#0ddc9c"/></linearGradient></defs><g transform="translate(0 -482)" clip-path="url(#a)"><g transform="translate(312.071 2776.113) rotate(-146)"><rect width="1142" height="1291" transform="translate(778)" fill="#fdfdfd"/><path d="M-3429.625,1291.634c-84.85-64.941-125.439-141.492-174.162-174.449-143.312-96.936-184.079-59.512-238.531-143.3C-3915.41,861.426-3815.252,677-3727.986,573.013s252.977-123.35,338.836-194.258c74.719-61.708,131.529-56.419,183.421-32.718l208.554-218.025s246.626-90.618,522.712,276.486c70.4,93.613,88.918,188.839,130.791,237.788,123.164,143.975,179.867,112.846,211.012,219.621,41.805,143.323-128.339,322.365-257.679,415.479s-315.573,72.417-432.361,129.205c-46.5,22.609-84.247,30.622-116.162,28.879-22.488,8.033-57,16.479-102.778,16.475C-3130.5,1451.939-3261.775,1420.1-3429.625,1291.634Z" transform="translate(4645.484 -360.706)" fill="#8cf9e0"/><path d="M-3294.066,1291.635c-111.113-64.942-164.264-141.492-228.07-174.449-187.671-96.937-241.056-59.513-312.363-143.3-95.716-112.463,35.445-296.889,149.722-400.876s331.279-123.349,443.714-194.258c97.845-61.707,172.241-56.418,240.195-32.718l273.106-218.024S-2404.8,37.394-2043.256,404.5c92.2,93.613,116.441,188.839,171.276,237.787,161.285,143.975,235.539,112.846,276.324,219.621,54.745,143.323-168.063,322.365-337.437,415.479s-413.252,72.416-566.187,129.205c-60.888,22.609-110.323,30.621-152.117,28.878-29.448,8.033-74.643,16.479-134.592,16.476C-2902.354,1451.939-3074.261,1420.1-3294.066,1291.635Z" transform="translate(4647.484 343.293)" fill="#8cf9e0" opacity="0.32"/></g><path d="M1200.245,363.727s-188.506-152.842-360.482-147.77-367.4-35.505-437.757-35.505-136.8,20.289-179.793,162.31S36.093,618.074,8.733,800.673s-25.447,470.167,99.626,556.394c93.179,64.239,111.67-7.7,293.646,13.275,61.869,7.13,138.541,71.91,250.147,93.372,437.658,84.165,548.092-191.2,548.092-191.2Z" transform="translate(-532.081 2153.889) rotate(-137)" opacity="0.7" fill="url(#b)"/></g></svg>