<svg xmlns="http://www.w3.org/2000/svg" width="112" height="122.924" viewBox="0 0 112 122.924"><g transform="translate(-1004 -1528.076)"><ellipse cx="56" cy="12" rx="56" ry="12" transform="translate(1004 1627)" fill="#dbe7fd"/><path d="M82.707,58.6,58.888,44.858,82.707,31.115a2.8,2.8,0,0,0,1.027-3.83l-5.611-9.713a2.807,2.807,0,0,0-3.832-1.027L50.472,30.288V2.8A2.8,2.8,0,0,0,47.667,0H36.445A2.8,2.8,0,0,0,33.64,2.8V30.29L9.822,16.547a2.807,2.807,0,0,0-3.832,1.027L.379,27.284a2.8,2.8,0,0,0,1.027,3.83L25.224,44.858,1.405,58.6a2.8,2.8,0,0,0-1.027,3.83l5.611,9.713a2.808,2.808,0,0,0,3.832,1.027L33.64,59.428V86.912a2.8,2.8,0,0,0,2.805,2.8H47.667a2.8,2.8,0,0,0,2.805-2.8V59.426L74.291,73.169a2.8,2.8,0,0,0,3.832-1.027l5.611-9.713A2.8,2.8,0,0,0,82.707,58.6Z" transform="translate(1017.944 1528.076)" fill="#5600ff"/></g></svg>